<svg enable-background="new 0 0 512 512" viewBox="0 0 512 512" xmlns="http://www.w3.org/2000/svg"><path d="m256 0c-141.384 0-256 114.616-256 256s114.616 256 256 256 256-114.616 256-256-114.616-256-256-256z" fill="#f00000"/><g fill="#fff"><path d="m256 466.432c-116.032 0-210.432-94.4-210.432-210.432s94.4-210.432 210.432-210.432 210.432 94.4 210.432 210.432-94.4 210.432-210.432 210.432zm0-404.864c-107.208 0-194.432 87.224-194.432 194.432s87.224 194.432 194.432 194.432 194.432-87.224 194.432-194.432-87.224-194.432-194.432-194.432z"/><path d="m356.088 238.864-100.088-98.608-100.088 98.608h42.952v106.216h114.272v-106.216z"/></g></svg>