<svg xmlns="http://www.w3.org/2000/svg" viewBox="0 0 451.62 356.59"><title>Asset 2</title><g id="Layer_2" data-name="Layer 2"><g id="OBJECTS"><path d="M72.59,356.48A72.81,72.81,0,0,1,0,283.89H0A72.8,72.8,0,0,1,72.59,211.3h0a30.78,30.78,0,0,0,30.69-30.7h0a30.78,30.78,0,0,0-30.69-30.69H68.94A32,32,0,0,1,37,118h0A32,32,0,0,1,68.94,86.09h11.2A12.46,12.46,0,0,0,92.57,73.67h0A12.46,12.46,0,0,0,80.14,61.24H71.91a8.59,8.59,0,0,1-8.57-8.57h0a8.6,8.6,0,0,1,8.57-8.58h55.35a13.51,13.51,0,0,0,13.47-13.47h0a13.51,13.51,0,0,0-13.47-13.47H110.71a8.6,8.6,0,0,1-8.57-8.58h0A8.6,8.6,0,0,1,110.71,0H346.1a11.22,11.22,0,0,1,11.18,11.19h0A11.22,11.22,0,0,1,346.1,22.38h-17A17.63,17.63,0,0,0,311.54,40h0a17.63,17.63,0,0,0,17.58,17.58H401.8A11.21,11.21,0,0,1,413,68.72h0A11.22,11.22,0,0,1,401.8,79.91H391.06a16.26,16.26,0,0,0-16.21,16.21h0a16.26,16.26,0,0,0,16.21,16.22h14.62A41.76,41.76,0,0,1,447.32,154h0a41.77,41.77,0,0,1-41.64,41.64h-4.77a40.17,40.17,0,0,0-40.05,40h0a40.18,40.18,0,0,0,40.05,40.05h10.32a40.5,40.5,0,0,1,40.39,40.38h0a40.5,40.5,0,0,1-40.39,40.38ZM374.72,22.38a11.19,11.19,0,1,0-11.19-11.19,11.19,11.19,0,0,0,11.19,11.19ZM47.85,61.24a8.58,8.58,0,1,0-8.58-8.57A8.57,8.57,0,0,0,47.85,61.24Z" style="fill:#c1dbf2;fill-rule:evenodd"/><path d="M227.38,70.46H92.15a12.55,12.55,0,0,1,.42,3.21h0A12.46,12.46,0,0,1,80.14,86.09H68.94A32,32,0,0,0,37,118h0v.28H227.38a24,24,0,0,0,23.91-23.91h0A24,24,0,0,0,227.38,70.46Z" style="fill:#dce9f7;fill-rule:evenodd"/><path d="M40,104.68H251.29v251.8H72.59A72.81,72.81,0,0,1,0,283.89H0A72.8,72.8,0,0,1,72.59,211.3h0a30.78,30.78,0,0,0,30.69-30.7h0a30.78,30.78,0,0,0-30.69-30.69H68.94A32,32,0,0,1,37,118h0A31.61,31.61,0,0,1,40,104.68Z" style="fill:#cde0f3;fill-rule:evenodd"/><path d="M37.83,125.08H234.08c5.62,0,10.21,5.46,10.21,12.12V356.48H72.59A72.81,72.81,0,0,1,0,283.89H0A72.8,72.8,0,0,1,72.59,211.3h0a30.78,30.78,0,0,0,30.69-30.7h0a30.78,30.78,0,0,0-30.69-30.69H68.94A32,32,0,0,1,37.83,125.08Z" style="fill:#c1dbf2;fill-rule:evenodd"/><path d="M101.56,170.5H244.29v20.63H101.41a30.42,30.42,0,0,0,1.87-10.53h0A30.26,30.26,0,0,0,101.56,170.5Z" style="fill:#cde0f3;fill-rule:evenodd"/><path d="M254.31,161.72H96.75a30.53,30.53,0,0,1,6.53,18.88h0c0,.59,0,1.17,0,1.75H254.31a6.75,6.75,0,0,0,6.73-6.73v-7.16A6.75,6.75,0,0,0,254.31,161.72Z" style="fill:#dce9f7;fill-rule:evenodd"/><path d="M2.84,263.83H244.29v20.63H0c0-.19,0-.38,0-.57H0A71.92,71.92,0,0,1,2.84,263.83Z" style="fill:#cde0f3;fill-rule:evenodd"/><path d="M254.31,255.06H6A72.17,72.17,0,0,0,.47,275.68H254.31A6.75,6.75,0,0,0,261,269v-7.16A6.75,6.75,0,0,0,254.31,255.06Z" style="fill:#dce9f7;fill-rule:evenodd"/><path d="M254.31,348.39H39.39a71.92,71.92,0,0,0,33.2,8.09H261v-1.35A6.75,6.75,0,0,0,254.31,348.39Z" style="fill:#fff;fill-rule:evenodd"/><path d="M254.31,94.37H47.55A31.87,31.87,0,0,0,37.17,115H254.31a6.75,6.75,0,0,0,6.73-6.74V101.1A6.75,6.75,0,0,0,254.31,94.37Z" style="fill:#dce9f7;fill-rule:evenodd"/><path d="M55.87,89.19H232.46c4.78,0,8.7-4.39,8.7-9.77a10.54,10.54,0,0,0-1.59-5.61c6.9,3.6,11.72,11.48,11.72,20.56H47.55A32.32,32.32,0,0,1,55.87,89.19Z" style="fill:#cde0f3;fill-rule:evenodd"/><rect x="203.84" y="202.95" width="34.55" height="52.11" rx="2.52" style="fill:#eaeae6"/><rect x="183.59" y="202.95" width="17.55" height="52.11" rx="1.28" style="fill:#e7e9e3"/><rect x="168.29" y="193.13" width="20.43" height="61.93" rx="1.49" style="fill:#b3ceeb"/><rect x="161.64" y="230.93" width="33.74" height="24.13" rx="1.76" style="fill:#b8d3ee"/><rect x="140.22" y="210.85" width="17.55" height="44.21" rx="1.28" style="fill:#b8d3ee"/><rect x="210.41" y="214.63" width="21.4" height="13.25" rx="1.69" style="fill:#e3e2dc"/><path d="M211.84,230.92h18.55a1.43,1.43,0,0,1,1.43,1.43v1.36a1.43,1.43,0,0,1-1.43,1.43H211.84a1.43,1.43,0,0,1-1.43-1.43v-1.37A1.42,1.42,0,0,1,211.84,230.92Z" style="fill:#e3e2dc"/><path d="M211.84,239.09h18.55a1.43,1.43,0,0,1,1.43,1.43v1.36a1.43,1.43,0,0,1-1.43,1.43H211.84a1.43,1.43,0,0,1-1.43-1.43v-1.37A1.42,1.42,0,0,1,211.84,239.09Z" style="fill:#e3e2dc"/><path d="M149,228.58c-2,0-3.68,2-3.68,4.38s1.65,4.37,3.68,4.37,3.69-2,3.69-4.37S151,228.58,149,228.58Z" style="fill:#b3ceeb;fill-rule:evenodd"/><path d="M149,153.77h7.93a1,1,0,0,1,1,1v5.93a1,1,0,0,1-1,1H149a1,1,0,0,1-1-1v-5.93A1,1,0,0,1,149,153.77Z" style="fill:#dce9f7"/><rect x="120.92" y="140.92" width="24.81" height="20.81" rx="1.52" style="fill:#b8d3ee"/><rect x="117.89" y="147.55" width="16.9" height="14.17" rx="1.03" style="fill:#b3ceeb"/><rect x="109.49" y="128.16" width="15.04" height="33.56" rx="1.1" style="fill:#dce9f7"/><path d="M204,138.44h-.84v-1.56h.29a1.05,1.05,0,0,0,.94-1.13h0a1,1,0,0,0-.94-1.12h-1V128a1,1,0,0,0-.94-1.12h0a1.05,1.05,0,0,0-1,1.12v6.6h-1a1,1,0,0,0-.94,1.12h0a1.05,1.05,0,0,0,.94,1.13h.29v1.56h-.84a1.16,1.16,0,0,0-1.05,1.25v20.78a1.16,1.16,0,0,0,1.05,1.25H204a1.16,1.16,0,0,0,1-1.25V139.69A1.16,1.16,0,0,0,204,138.44Z" style="fill:#b3ceeb;fill-rule:evenodd"/><path d="M212.16,140.88h-.75v-1.4h.26a.93.93,0,0,0,.84-1h0a.93.93,0,0,0-.84-1h-.93v-5.91a.93.93,0,0,0-.84-1h0a.94.94,0,0,0-.85,1v5.91h-.92a.94.94,0,0,0-.85,1h0a.94.94,0,0,0,.85,1h.25v1.4h-.74a1.05,1.05,0,0,0-.95,1.12v18.6a1,1,0,0,0,.95,1.12h4.52a1,1,0,0,0,.94-1.12V142A1,1,0,0,0,212.16,140.88Z" style="fill:#b3ceeb;fill-rule:evenodd"/><rect x="212.6" y="139.72" width="14.59" height="22.01" rx="1.06" style="fill:#dce9f7"/><path d="M216.1,144.65h7.61a.71.71,0,0,1,.71.71v4.17a.72.72,0,0,1-.72.72H216.1a.72.72,0,0,1-.72-.72v-4.17A.72.72,0,0,1,216.1,144.65Z" style="fill:#f5f6f5"/><rect x="215.38" y="151.53" width="9.04" height="1.78" rx="0.6" style="fill:#f5f6f5"/><rect x="215.38" y="154.98" width="9.04" height="1.78" rx="0.6" style="fill:#f5f6f5"/><rect x="202.41" y="148.2" width="8.97" height="13.52" rx="0.65" style="fill:#b8d3ee"/><rect x="166.28" y="128.67" width="30.41" height="33.06" rx="2.22" style="fill:#b8d3ee"/><rect x="191.11" y="148.2" width="8.97" height="13.52" rx="0.65" style="fill:#dce9f7"/><path d="M78.36,140.92h21.78a1.52,1.52,0,0,1,1.52,1.51v17.78a1.52,1.52,0,0,1-1.52,1.51H96.75a30.78,30.78,0,0,0-19.91-11.51v-7.78A1.52,1.52,0,0,1,78.36,140.92Z" style="fill:#b3ceeb;fill-rule:evenodd"/><path d="M88.82,147.55h14.83a1,1,0,0,1,1,1v12.1a1,1,0,0,1-1,1h-6.9a31.23,31.23,0,0,0-9-7.76v-5.37A1,1,0,0,1,88.82,147.55Z" style="fill:#b8d3ee;fill-rule:evenodd"/><path d="M84.77,151.75H89.7a.42.42,0,0,1,.42.42v3.28a30.55,30.55,0,0,0-5.77-3.18v-.1A.42.42,0,0,1,84.77,151.75Z" style="fill:#f0f1ee;fill-rule:evenodd"/><path d="M52.69,132.8h-12a32.2,32.2,0,0,0,13.39,13.42v-12A1.4,1.4,0,0,0,52.69,132.8Z" style="fill:#eaeae6;fill-rule:evenodd"/><path d="M49.5,139.28H45.22A31.36,31.36,0,0,0,50.44,144v-3.74A1,1,0,0,0,49.5,139.28Z" style="fill:#e3e2dc;fill-rule:evenodd"/><path d="M62.35,218.4H61v-2.46h.45A1.65,1.65,0,0,0,63,214.17h0a1.65,1.65,0,0,0-1.49-1.76H60q-3.12.56-6.14,1.37a1.72,1.72,0,0,0,0,.39h0a1.65,1.65,0,0,0,1.49,1.77h.45v2.46H54.39a1.84,1.84,0,0,0-1.66,2v32.72a1.84,1.84,0,0,0,1.66,2h8a1.84,1.84,0,0,0,1.66-2V220.37A1.84,1.84,0,0,0,62.35,218.4Z" style="fill:#b3ceeb;fill-rule:evenodd"/><path d="M75.21,222.25H74V220h.4a1.48,1.48,0,0,0,1.33-1.58h0a1.48,1.48,0,0,0-1.33-1.58H73v-5.59h-.39c-.76,0-1.51,0-2.27,0v5.54H68.87a1.48,1.48,0,0,0-1.34,1.58h0A1.48,1.48,0,0,0,68.87,220h.4v2.21H68.09A1.64,1.64,0,0,0,66.61,224v29.28a1.65,1.65,0,0,0,1.48,1.77h7.12a1.66,1.66,0,0,0,1.49-1.77V224A1.65,1.65,0,0,0,75.21,222.25Z" style="fill:#deded7;fill-rule:evenodd"/><path d="M77.59,220.42H97.21a1.67,1.67,0,0,1,1.67,1.67v31.29a1.67,1.67,0,0,1-1.67,1.67H77.59a1.68,1.68,0,0,1-1.68-1.68V222.09A1.67,1.67,0,0,1,77.59,220.42Z" style="fill:#f9f9fa"/><path d="M81.41,228.18h12a1.12,1.12,0,0,1,1.12,1.12v6.56A1.13,1.13,0,0,1,93.39,237h-12a1.12,1.12,0,0,1-1.12-1.12V229.3A1.13,1.13,0,0,1,81.41,228.18Z" style="fill:#f5f6f5"/><rect x="80.29" y="239.01" width="14.23" height="2.8" rx="0.95" style="fill:#f5f6f5"/><rect x="80.29" y="244.44" width="14.23" height="2.8" rx="0.95" style="fill:#f5f6f5"/><rect x="59.87" y="233.77" width="14.11" height="21.29" rx="1.03" style="fill:#eaeae6"/><path d="M6,255a3.19,3.19,0,0,0,.45,0H47.36a3.5,3.5,0,0,0,3.49-3.49V214.65A73.16,73.16,0,0,0,6,255Z" style="fill:#c1dbf2;fill-rule:evenodd"/><rect x="42.09" y="233.77" width="14.11" height="21.29" rx="1.03" style="fill:#c1dbf2"/><rect x="104.4" y="336.86" width="14.45" height="11.53" rx="1.47" style="fill:#eaeae6"/><rect x="122.1" y="318.22" width="35.97" height="30.17" rx="2.2" style="fill:#eaeae6"/><rect x="137.97" y="327.84" width="24.5" height="20.55" rx="1.5" style="fill:#e1e1d9"/><rect x="152.84" y="299.74" width="21.81" height="48.65" rx="1.59" style="fill:#b8d3ee"/><path d="M37.65,314.63h1.21v-2.27h-.41a1.52,1.52,0,0,1-1.38-1.62h0a1.52,1.52,0,0,1,1.38-1.63h1.49v-9.56a1.52,1.52,0,0,1,1.37-1.63h0a1.51,1.51,0,0,1,1.37,1.63v9.56h1.5a1.52,1.52,0,0,1,1.37,1.63h0a1.52,1.52,0,0,1-1.37,1.62h-.42v2.27H45a1.69,1.69,0,0,1,1.52,1.82v30.12A1.69,1.69,0,0,1,45,348.39H39.39c-1.1-.57-2.2-1.18-3.27-1.81h0V316.45A1.7,1.7,0,0,1,37.65,314.63Z" style="fill:#deded7;fill-rule:evenodd"/><path d="M25.8,318.17h1.08v-2h-.37a1.35,1.35,0,0,1-1.22-1.45h0a1.36,1.36,0,0,1,1.22-1.46h1.34v-8.56a1.35,1.35,0,0,1,1.23-1.45h0a1.36,1.36,0,0,1,1.23,1.45v8.56h1.34a1.36,1.36,0,0,1,1.22,1.46h0a1.35,1.35,0,0,1-1.22,1.45h-.38v2h1.09a1.52,1.52,0,0,1,1.37,1.63v25.32a73.49,73.49,0,0,1-9.3-7V319.8A1.52,1.52,0,0,1,25.8,318.17Z" style="fill:#deded7;fill-rule:evenodd"/><path d="M7.78,316.49H23.61A1.54,1.54,0,0,1,25.15,318v20.69A73.48,73.48,0,0,1,7.78,316.49Z" style="fill:#f9f9fa;fill-rule:evenodd"/><path d="M11.93,323.63h8.16a1,1,0,0,1,1,1v6a1,1,0,0,1-1,1h-2A73.16,73.16,0,0,1,11.93,323.63Z" style="fill:#f5f6f5;fill-rule:evenodd"/><path d="M19.83,333.61h.43a.88.88,0,0,1,.87.88V335C20.69,334.52,20.26,334.07,19.83,333.61Z" style="fill:#f5f6f5;fill-rule:evenodd"/><path d="M27.88,328.79H39a.94.94,0,0,1,.94.94v17.71a1,1,0,0,1-.63.9,72.87,72.87,0,0,1-12.36-8.13V329.73A.94.94,0,0,1,27.88,328.79Z" style="fill:#eaeae6;fill-rule:evenodd"/><rect x="48.24" y="300.46" width="44.08" height="47.93" rx="3.21" style="fill:#eaeae6"/><rect x="43.31" y="328.79" width="13" height="19.6" rx="0.95" style="fill:#f9f9fa"/><rect x="225.24" y="336.86" width="14.45" height="11.53" rx="1.47" style="fill:#eaeae6"/><rect x="186.01" y="318.22" width="35.97" height="30.17" rx="2.2" style="fill:#eaeae6"/><rect x="181.62" y="327.84" width="24.5" height="20.55" rx="1.5" style="fill:#e1e1d9"/><rect x="202.73" y="333.93" width="8.37" height="14.46" rx="0.61" style="fill:#f0f1ee"/><path d="M44.5,236.49H17.73A72.49,72.49,0,0,0,1.36,269.94a6.4,6.4,0,0,0,3.13.81h40A6.51,6.51,0,0,0,51,264.26V243A6.51,6.51,0,0,0,44.5,236.49Z" style="fill:#331c38;fill-rule:evenodd"/><rect x="21.3" y="236.49" width="52.99" height="34.26" rx="6.49" style="fill:#4f3f55"/><rect x="57.27" y="234.89" width="10" height="7.34" rx="1.6" style="fill:#331c38"/><rect x="58.71" y="234.89" width="8.57" height="7.34" rx="1.6" style="fill:#4f3f55"/><path d="M64.77,238h0a.58.58,0,0,0-.58.58v2.69H62.06v-2.69a.59.59,0,0,0-.59-.58h0a.58.58,0,0,0-.58.58v7.17a1,1,0,0,0,1,1h2.52a1,1,0,0,0,1-1v-7.17A.59.59,0,0,0,64.77,238Z" style="fill:#3f2c44;fill-rule:evenodd"/><rect x="28.89" y="234.89" width="10" height="7.34" rx="1.6" style="fill:#331c38"/><rect x="30.32" y="234.89" width="8.56" height="7.34" rx="1.6" style="fill:#4f3f55"/><path d="M36.39,238h0a.59.59,0,0,0-.59.58v2.69H33.67v-2.69a.58.58,0,0,0-.58-.58h0a.59.59,0,0,0-.59.58v7.17a1,1,0,0,0,1,1H36a1,1,0,0,0,1-1v-7.17A.58.58,0,0,0,36.39,238Z" style="fill:#5a4a60;fill-rule:evenodd"/><path d="M69.24,249.36H26.36a1.17,1.17,0,0,0-1.17,1.17h0a1.17,1.17,0,0,0,1.17,1.17H69.24a1.18,1.18,0,0,0,1.17-1.17h0A1.17,1.17,0,0,0,69.24,249.36Z" style="fill:#331c38;fill-rule:evenodd"/><path d="M69.24,254.31H26.36a1.17,1.17,0,0,0-1.17,1.17h0a1.17,1.17,0,0,0,1.17,1.17H69.24a1.18,1.18,0,0,0,1.17-1.17h0A1.17,1.17,0,0,0,69.24,254.31Z" style="fill:#331c38;fill-rule:evenodd"/><rect x="25.19" y="259.25" width="45.22" height="2.34" rx="1.17" style="fill:#331c38"/><rect x="25.19" y="264.2" width="45.22" height="2.34" rx="1.17" style="fill:#331c38"/><rect x="17.5" y="270.3" width="68.68" height="44.41" rx="8.41" style="fill:#331c38"/><path d="M1.29,270.3H47.57A8.44,8.44,0,0,1,56,278.71V306.3a8.44,8.44,0,0,1-8.41,8.41H6.91A72.08,72.08,0,0,1,0,283.89H0A72.56,72.56,0,0,1,1.29,270.3Z" style="fill:#4f3f55;fill-rule:evenodd"/><path d="M1.72,268.23H7.3a2.07,2.07,0,0,1,2.06,2.07v5.38a2.07,2.07,0,0,1-2.06,2.07h-7A72.84,72.84,0,0,1,1.72,268.23Z" style="fill:#331c38;fill-rule:evenodd"/><path d="M1.72,268.23H5.43A2.07,2.07,0,0,1,7.5,270.3v5.38a2.07,2.07,0,0,1-2.07,2.07H.26A72.84,72.84,0,0,1,1.72,268.23Z" style="fill:#4f3f55;fill-rule:evenodd"/><path d="M.4,276.29v.25H3.16v-3.48a.76.76,0,0,1,.76-.76h0a.76.76,0,0,1,.75.76v9.29a1.26,1.26,0,0,1-1.25,1.26H0C0,281.14.15,278.7.4,276.29Z" style="fill:#3f2c44;fill-rule:evenodd"/><rect x="33.19" y="268.23" width="12.96" height="9.52" rx="2.07" style="fill:#331c38"/><rect x="33.19" y="268.23" width="11.1" height="9.52" rx="2.07" style="fill:#4f3f55"/><path d="M36.43,272.3h0a.77.77,0,0,1,.76.76v3.48h2.75v-3.48a.76.76,0,0,1,.76-.76h0a.76.76,0,0,1,.76.76v9.29a1.27,1.27,0,0,1-1.26,1.26H36.93a1.27,1.27,0,0,1-1.26-1.26v-9.29A.76.76,0,0,1,36.43,272.3Z" style="fill:#3f2c44;fill-rule:evenodd"/><path d="M.07,287H49.43a1.52,1.52,0,0,1,1.51,1.52h0A1.52,1.52,0,0,1,49.43,290H.26C.18,289,.11,288,.07,287Z" style="fill:#331c38;fill-rule:evenodd"/><path d="M.63,293.4h48.8a1.52,1.52,0,0,1,1.51,1.51h0a1.52,1.52,0,0,1-1.51,1.52H1.09C.92,295.42.76,294.41.63,293.4Z" style="fill:#331c38;fill-rule:evenodd"/><path d="M1.77,299.81H49.43a1.52,1.52,0,0,1,1.51,1.51h0a1.52,1.52,0,0,1-1.51,1.52H2.53C2.26,301.84,2,300.83,1.77,299.81Z" style="fill:#331c38;fill-rule:evenodd"/><path d="M3.54,306.22H49.43a1.52,1.52,0,0,1,1.51,1.52h0a1.52,1.52,0,0,1-1.51,1.51H4.6C4.23,308.25,3.87,307.24,3.54,306.22Z" style="fill:#331c38;fill-rule:evenodd"/><path d="M128,294.74a162,162,0,0,1,4.9,24.12H61.32c-.26-9.23.51-16.57,3-19.87C74.84,285.21,120.51,286.23,128,294.74Z" style="fill:#05304b;fill-rule:evenodd"/><path d="M120.52,262.88a99.13,99.13,0,0,0,.45,13.49c-4.77-2.1-10.13,1.51-9.93,5.49.27,5.2-.36,8.6,6.27,18.63,3.11,4.7,5.86,6.1,7.91,6.26-3.13,2.39-6.71,4.51-9.43,5,0,0-.53.25-1.3-.87s-3.8-13.13-5.86-16c-.66-.91-.13-9.09.89-19.82-10.71,3.49-28.35,2.78-36.37,0a6.63,6.63,0,0,1-1-2.21c.3-.6,6-9,12.74-18.63,5.93,9.36,11.06,17.13,11.06,17.13Z" style="fill:#004268;fill-rule:evenodd"/><path d="M71.9,268.76a20.71,20.71,0,0,0,.53-2.44,20,20,0,0,0,.18-3.05,57.45,57.45,0,0,0-4.19-27.39c-6.46-16.26-16-43.09-16-43.11.4-.41.8-.8,1.21-1.17a13.31,13.31,0,0,1,3.78-2.79,27.6,27.6,0,0,1,9.41-3.26h.06l.15,0c7.16-1.24,15.94-1,27.55-2.51.71,0,1.16.11,1.82.12,8.23.11,31,28.46,27.36,43a125.55,125.55,0,0,0-2.54,18.62c-.71,10.94-1.18,30.11.08,32.8s15.29,29.53,16,31.36c3.22,8-54.13,11.06-72.91-5.28a143.6,143.6,0,0,1,4-20.34A121.81,121.81,0,0,0,71.9,268.76Z" style="fill:#fff;fill-rule:evenodd"/><path d="M71.9,268.76a20.71,20.71,0,0,0,.53-2.44,20,20,0,0,0,.18-3.05,57.45,57.45,0,0,0-4.19-27.39c-6.46-16.26-16-43.09-16-43.11.4-.41.8-.8,1.21-1.17a13.31,13.31,0,0,1,3.78-2.79,27.6,27.6,0,0,1,9.41-3.26h.07l.14,0c1.78-.31,4-1.57,6-1.75,2.83-.25,5.56.63,8.92.41,0,0-19.14,14.56.45,51.48,9.47,17.85.76,29.26-10.92,35.56C71.62,270.39,71.77,269.57,71.9,268.76Z" style="fill:#fdf1ef;fill-rule:evenodd"/><path d="M73.62,159.76l.47,6.24s.41,12.8.47,14.75a3.56,3.56,0,0,1-1.8,2.62c-1.24.9,4.48,3.66,2.21,4.12,0,0,9.45,0,15.65-.13,3.9-.06,6,3.72,5.22-4.62,0,0-.09,0-.14-.05-1.39-.59-.76,0-2-1-.17-.15-.36-.33-.56-.53-2.21-2.27-2.45-12.67-.39-15.46S73.62,159.76,73.62,159.76Z" style="fill:#e8685b;fill-rule:evenodd"/><path d="M147,206.9l5.4-.91s4,6.71-2.74,19.35c0,0-2.86-4-3.16-6.26S147,206.9,147,206.9Z" style="fill:#f8cfbe;fill-rule:evenodd"/><path d="M104.42,185.35c15.24,5.92,35.53,16.2,50.92,23.24,4.33,2,8.15,3.7,9,.13,1.94-8,3.19-24.84,3.75-35.44.14-2.67-2.81-5.45-3.55-7-.39-.8,5-2.86,5.76-2.66,2.83.73,6.52-1.89,7.86.14a34.52,34.52,0,0,0-.92,8.52c.25,8.87,1.74,24.2-2.66,47.49-.07.18.84-3.16-.18.55-.79,2.9-4.37,5.59-7.5,6-5.82.82-41.27-10.89-47.47-14a81.91,81.91,0,0,1-9.68-5.73C112.14,200.7,102.47,190.81,104.42,185.35Z" style="fill:#f4ad85;fill-rule:evenodd"/><path d="M176,163.6c1.19,0,1.85-.28,2.38.53a28.52,28.52,0,0,0-1.12,8.18c.25,8.87,1.74,24.2-2.66,47.49-.07.18.84-3.16-.18.55-.79,2.9-4.37,5.59-7.5,6-2.8.39-12.44-2.11-22.38-5.15-.63-4.52-1-7.57-1-7.57l6-4.7s3,8.51,5.46,10.57,11.36,3.2,14,2.1,6-25.95,5.86-36.75-.94-14.28-1.88-16.34C172.3,167.16,174.25,166,176,163.6Z" style="fill:#ef8871;fill-rule:evenodd"/><path d="M102,185.8l1.76-.85s20,6.9,48.66,21c-1.62,1.9-5.9,13.09-2.74,19.35L129.36,223Z" style="fill:#fff;fill-rule:evenodd"/><path d="M102,185.8l1.76-.85H104l0,0,.07,0h0l.07,0,.09,0h0l.09,0,.1,0h0l.11,0,.09,0h0l.13,0,.08,0,.06,0,.14.06.06,0,.09,0,.16.06h0l.13.05.18.06h0l.17.06.18.07h0l.2.08.16.06h0l.21.08.14.05.08,0,.23.09.11,0,.13.05.24.09.08,0,.17.06.26.1,0,0,.22.08.28.1h0l.28.1.24.09,0,0,.29.11.2.08.1,0,.31.12.16.06.15.06,0,0,.61.23.33.13.07,0,.28.11.34.13h0l.34.13.32.13,0,0,.37.14.27.11.11,0,.38.15.22.09.17.07.4.16.16.06.24.1.41.16.3.12.11,0,.42.17,0,0,.39.15.41.17h0l.44.18.34.14.1,0,.46.19.28.11.17.08.47.19a47.8,47.8,0,0,0,8.57,15.49c7.55,9,16.62,7.58,21.46,5.89-1.16,4.13-1.77,9.28,0,12.84l-34.25-4Z" style="fill:#fdf1ef;fill-rule:evenodd"/><path d="M35.45,240.39l-1.78.91s.19,2.13,5.89,6a52.92,52.92,0,0,0,10.19,5.53l.18-4.56Z" style="fill:#f8cfbe;fill-rule:evenodd"/><path d="M97.77,183.31c19.91,20-7.23,30.6-20,14.58-8-10-11.57-12.23-11.57-12.23a1.06,1.06,0,0,0-.84-.18c-.54.08-5.06,1.68-5.55,1.86s-.54.47-.54.47,24.88,19.3,6,42.89c0,0,15.29,19.79.25,52.28,0,0-12,25.66-5.7,31.59s80-3.84,80-3.84-11.7-22.16-14.4-27.63-4.87-11.05-4-25.39,3.7-30.49,3.1-39.58-18.92-30.89-19.84-32.4S98.68,182.92,97.77,183.31Z" style="fill:#e67170;fill-rule:evenodd"/><path d="M72.32,214c-1.09,8.14-4.61,14.18-7,16.72,0,0,15.29,19.79.25,52.28,0,0-10.48,21.7-7.56,30.57s9.29-1.46,13.89-1.5c.64-27.12,4.64-80.47,50.72-66.42.69-6.52,1.46-12.9,1.85-18.39C107.07,234,74.88,240.81,72.32,214Z" style="fill:#d84f50;fill-rule:evenodd"/><path d="M51.54,193.86c-2.35,4.08-23.63,63-21.44,74.82s18.73,33.26,27.31,39.05c0,0,1,.59,1.5-.81s2.47-1.11,4.46-2.28c-9-15.59-13.6-20.94-19.18-38.17-3.06-9.43,17-34.62,20.47-40.6C73,211.65,56.72,184.93,51.54,193.86Z" style="fill:#f4ad85;fill-rule:evenodd"/><path d="M74.61,309.25a6.52,6.52,0,0,0-6.34-6.67L62,302.42a6.52,6.52,0,0,0-6.67,6.33h0c0,.17,0,.33,0,.5Z" style="fill:#f4ad85;fill-rule:evenodd"/><path d="M38.94,112.93a14.4,14.4,0,1,0,17.72,10A14.41,14.41,0,0,0,38.94,112.93Z" style="fill:#3f2c44;fill-rule:evenodd"/><path d="M61.85,106.57S51,101.85,45.14,113c-4.61,8.86-7.86,20.92-3.61,35,.63,2,8.49,25,29.19,22.48,21.62-2.63,31.59-20.66,31.59-20.66C124.66,133.47,86.76,80.4,61.85,106.57Z" style="fill:#3f2c44;fill-rule:evenodd"/><path d="M41.18,123a44.13,44.13,0,0,0,.33,24.9c.51,1.6,8.33,25.08,29.21,22.53-2.57-13.51-4.91-23.31-4.91-23.31l21.57-12.52-.77-18.27C57.52,154.63,41.19,123.05,41.18,123Z" style="fill:#331c38;fill-rule:evenodd"/><path d="M101.73,150.77c-5.63-9.82-37.07-1-37.07-1l-6.51-4.65s-11.59,2.82-7.4,18.22c4.6,4.63,11.11,8.25,20,7.16C89.34,168.21,99.32,154.52,101.73,150.77Z" style="fill:#331c38;fill-rule:evenodd"/><path d="M54.56,146.64A6.62,6.62,0,1,0,62,152.27,6.62,6.62,0,0,0,54.56,146.64Z" style="fill:#e8685b;fill-rule:evenodd"/><path d="M73.83,110.13h0a22.73,22.73,0,0,0-19.28,25.61l2.87,20.39A22.73,22.73,0,0,0,83,175.42h0a22.73,22.73,0,0,0,19.29-25.6l-2.87-20.4A22.74,22.74,0,0,0,73.83,110.13Z" style="fill:#f4ad85;fill-rule:evenodd"/><path d="M55.38,125.78a22.45,22.45,0,0,0-.83,10l2.87,20.4A22.73,22.73,0,0,0,83,175.42h0a21.15,21.15,0,0,0,2.16-.41c-24.51-.63-29.6-28.65-19.51-31.29,12.47-3.27,22.55-14.91,22.55-14.91,2.43,3.28,8.11,5.07,12,5.94l-.75-5.33a22.76,22.76,0,0,0-21.85-19.5c-3.6.94-6.79,2.07-8.42,2.3-4.28.6-9.66,8.43-13,12.66A11.25,11.25,0,0,1,55.38,125.78Z" style="fill:#ef8871;fill-rule:evenodd"/><path d="M79.34,160.15a6,6,0,1,0,11.79-1.66h0a1,1,0,0,0-1.17-.87L80.22,159a1,1,0,0,0-.87,1.16Z" style="fill:#fff;fill-rule:evenodd"/><path d="M96.93,151.32a3.28,3.28,0,1,0,3.71,2.79A3.28,3.28,0,0,0,96.93,151.32Z" style="fill:#e8685b;fill-rule:evenodd"/><path d="M69,155.25A3.28,3.28,0,1,0,72.7,158,3.27,3.27,0,0,0,69,155.25Z" style="fill:#e8685b;fill-rule:evenodd"/><path d="M53.2,147l4.53-2.69s3.41,5.48-.83,8.14l-.4-2.8A2.78,2.78,0,0,0,53.2,147Z" style="fill:#331c38;fill-rule:evenodd"/><path d="M86.61,116.37s0,17.14-32,30.27L51.5,122.31l15.31-14.38,16.9-.1s9.63,8.11,10.64,9.25,8.49,12.64,8.49,12.64l-2.92,3.13S92.32,130.63,86.61,116.37Z" style="fill:#3f2c44;fill-rule:evenodd"/><path d="M86.61,116.37s0,17.14-32,30.27L53,134.05C60.69,137.17,72.06,135.51,86.61,116.37Z" style="fill:#331c38;fill-rule:evenodd"/><path d="M42.8,118.17v.06c-.26.66-.5,1.33-.74,2,19.06,18.11,37.38,3.23,46-17.89a24.21,24.21,0,0,0-9.54-2.85C74.65,120.66,55.05,130.6,42.8,118.17Z" style="fill:#4f3f55;fill-rule:evenodd"/><path d="M73.27,150.4a.83.83,0,0,0,1.65-.23,4,4,0,1,0-8,1.12.83.83,0,0,0,.94.71.84.84,0,0,0,.71-.94,2.35,2.35,0,1,1,4.66-.66Z" style="fill:#331c38;fill-rule:evenodd"/><path d="M96.15,147.18A.83.83,0,1,0,97.8,147a4,4,0,0,0-1.56-2.65,4,4,0,0,0-5.63.79,4,4,0,0,0-.78,3,.85.85,0,0,0,.94.71.83.83,0,0,0,.71-.94,2.41,2.41,0,0,1,.45-1.75,2.38,2.38,0,0,1,3.3-.47A2.4,2.4,0,0,1,96.15,147.18Z" style="fill:#331c38;fill-rule:evenodd"/><path d="M61.46,149.76l-7,1a1.06,1.06,0,0,1-.3-2.1l7-1-.11-.82a2.63,2.63,0,0,1,2.51-3.27l13-1.83a2.65,2.65,0,0,1,3.32,2.52l.06.45.08.56,5.42-.76-.08-.57-.06-.44a2.64,2.64,0,0,1,2.49-3.35l11.59-1.63a2.63,2.63,0,0,1,3.31,2.46l1.33,9.46c.49,3.42-2.62,4.16-3.33,4.28l-.11,0-6.72.95c-5.59.78-7.3-4.55-8.1-9.09l-5.47.78c.49,4.58.31,10.17-5.28,11l-2,.29-6.09.86h-.11c-.72.07-3.91.22-4.39-3.2l-.92-6.54Zm5.12,7.63,8.14-1.15c4.64-.65,3.69-7.3,3.13-11.24l-.06-.45a.88.88,0,0,1,0-.16s0-.68-.92-.55l-13,1.83c-.77.1-.75.6-.73.74l0,.14.26,1.86,1.07,7.6a1.67,1.67,0,0,0,2,1.39Zm33.79-4.76a1.67,1.67,0,0,0,1.55-1.89l-1.33-9.46c0-.05,0-.09,0-.14s-.14-.63-.91-.52l-11.59,1.63c-.89.13-.72.79-.72.79l0,.16.06.45c.54,3.94,1.47,10.59,6.11,9.94l6.72-1Z" style="fill:#331c38;fill-rule:evenodd"/><rect x="144.4" y="253.1" width="3.64" height="14.67" style="fill:#331c38"/><rect x="132.54" y="244.73" width="27.36" height="11.48" rx="2.23" style="fill:#331c38"/><rect x="134.2" y="246.4" width="24.03" height="8.15" rx="0.56" style="fill:#fff"/><rect x="115.83" y="265.31" width="37.66" height="48.13" rx="4.85" style="fill:#4f3f55"/><path d="M103.21,289.62v24.61a6.22,6.22,0,0,0,6.2,6.2h50.5a6.22,6.22,0,0,0,6.2-6.2V289.62a2.76,2.76,0,0,0-2.76-2.75H106A2.76,2.76,0,0,0,103.21,289.62Z" style="fill:#3f2c44;fill-rule:evenodd"/><path d="M110,282.64v24.6a6.22,6.22,0,0,0,6.2,6.2h36.91a6.22,6.22,0,0,0,6.2-6.2v-24.6a2.77,2.77,0,0,0-2.76-2.76h-43.8A2.76,2.76,0,0,0,110,282.64Z" style="fill:#3f2c44;fill-rule:evenodd"/><path d="M159.32,304V282.64a2.77,2.77,0,0,0-2.76-2.76H115.83V297.8A6.22,6.22,0,0,0,122,304h37.29Z" style="fill:#4f3f55;fill-rule:evenodd"/><path d="M122,265.31v5.34a4.86,4.86,0,0,0,4.85,4.84h26.64v4.39H115.83v-9.72a4.87,4.87,0,0,1,4.85-4.85H122Z" style="fill:#3f2c44;fill-rule:evenodd"/><path d="M161.41,286.87v17.26a2.76,2.76,0,0,0,2.75,2.76h2v2.36H159a6.1,6.1,0,0,0,.34-2V286.87Z" style="fill:#331c38;fill-rule:evenodd"/><path d="M107.92,286.87v17.26a2.77,2.77,0,0,1-2.76,2.76h-2v2.36h7.13a6.1,6.1,0,0,1-.33-2V286.87Z" style="fill:#331c38;fill-rule:evenodd"/><path d="M155.85,282.58H135a1.26,1.26,0,0,0-1.26,1.26h0A1.27,1.27,0,0,0,135,285.1h20.89a1.27,1.27,0,0,0,1.26-1.26h0A1.26,1.26,0,0,0,155.85,282.58Z" style="fill:#3f2c44;fill-rule:evenodd"/><path d="M129.55,282.58h1.14a1.26,1.26,0,0,1,1.26,1.26h0a1.27,1.27,0,0,1-1.26,1.26h-1.14a1.27,1.27,0,0,1-1.26-1.26h0A1.26,1.26,0,0,1,129.55,282.58Z" style="fill:#fff;fill-rule:evenodd"/><rect x="145.37" y="288.8" width="11.38" height="12.13" rx="1.46" style="fill:#fff"/><path d="M142.52,288.8H120.35a.62.62,0,0,0-.62.62h0a.62.62,0,0,0,.62.62h22.17a.62.62,0,0,0,.62-.62h0A.62.62,0,0,0,142.52,288.8Z" style="fill:#3f2c44;fill-rule:evenodd"/><path d="M142.52,292.43H120.35a.62.62,0,0,0-.62.62h0a.62.62,0,0,0,.62.62h22.17a.62.62,0,0,0,.62-.62h0A.62.62,0,0,0,142.52,292.43Z" style="fill:#3f2c44;fill-rule:evenodd"/><path d="M142.52,296.07H120.35a.61.61,0,0,0-.62.61h0a.62.62,0,0,0,.62.62h22.17a.62.62,0,0,0,.62-.62h0A.61.61,0,0,0,142.52,296.07Z" style="fill:#3f2c44;fill-rule:evenodd"/><rect x="119.73" y="299.7" width="23.41" height="1.24" rx="0.62" style="fill:#3f2c44"/><path d="M283.91,326.41h-270a72.61,72.61,0,0,0,58.73,30.07H283.91a4.36,4.36,0,0,0,4.34-4.34V330.76A4.36,4.36,0,0,0,283.91,326.41Z" style="fill:#e8685b;fill-rule:evenodd"/><path d="M223.89,356.48h-9.3V334.22h9.3v22.26Zm-151.3,0a73.19,73.19,0,0,1-10.74-.8V334.22H73.76v22.26Zm75,0H79.71V334.22h67.88v22.26Zm30.86,0H166.54V334.22h11.91v22.26Zm19.49,0h-7V334.22h7Z" style="fill:#ef8871;fill-rule:evenodd"/><path d="M283.91,326.41h-270a73.56,73.56,0,0,0,12.7,13.5H288.25v-9.15A4.36,4.36,0,0,0,283.91,326.41Z" style="fill:#331c38;fill-rule:evenodd"/><path d="M328.71,309.25H4.6A73,73,0,0,0,21,334.79H328.71a3.79,3.79,0,0,0,3.77-3.78V313A3.78,3.78,0,0,0,328.71,309.25Z" style="fill:#f4c6b3;fill-rule:evenodd"/><path d="M103.8,309.25H93.91v25.54h9.89V309.25Zm203.59,0H290.65v25.54h16.74V309.25Zm-25.11,0H149.15v25.54H282.28V309.25Zm-144.25,0H121.3v25.54H138Z" style="fill:#f3bba2;fill-rule:evenodd"/><path d="M281.42,346.49a2.11,2.11,0,1,0,2.11,2.11A2.11,2.11,0,0,0,281.42,346.49Z" style="fill:#331c38;fill-rule:evenodd"/><path d="M7.67,316.25H78.2l8,4.61a.69.69,0,0,0,.34.09h246V319.6H86.69L78.76,315a.65.65,0,0,0-.39-.13H7C7.22,315.35,7.44,315.8,7.67,316.25Z" style="fill:#fff;fill-rule:evenodd"/><path d="M191.57,194.39s-4.19,2-8.11,12.13-16.11,69.9-15.73,78.14,25.89,55,25.89,55,5.11-8.4,5.4-12.42-3.29-10-3.29-10-8.43-28.41-10.39-39.32,13.61-34,13.61-34l11.87-31.19S200.24,189.76,191.57,194.39Z" style="fill:#97b2bc;fill-rule:evenodd"/><path d="M185.34,277.92c-2-10.92,13.61-34,13.61-34l4-10.63c-1.16-7.84-2.44-13.94-3.12-12.12-1.27,3.38-12.82,37.1-14.53,42.68S185.34,277.92,185.34,277.92Z" style="fill:#7d939d;fill-rule:evenodd"/><path d="M188.79,330.61c2.85,5.39,4.83,9,4.83,9s5.11-8.4,5.4-12.42-3.29-10-3.29-10-7.64-25.75-10.07-37.64c1.42,7.33,7,36.24,7.6,38.62S193,325.74,188.79,330.61Z" style="fill:#7d939d;fill-rule:evenodd"/><path d="M273.65,205.26l12-8.56a37.65,37.65,0,0,1,4.8,8.33,171.92,171.92,0,0,1,7.76,29.65c3.75,22.48,7.5,53.4,6.37,63.52s-27,36.73-30,37.1-4.12-8.43-4.12-8.43,14.62-21.73,16.49-30.35-13.12-56.22-13.12-56.22Z" style="fill:#7d939d;fill-rule:evenodd"/><path d="M196.58,323s-3.74,13.59-4.12,33.5h85.08s2.62-16-2.16-27.78Z" style="fill:#331c38;stroke:#05304b;stroke-linecap:round;stroke-linejoin:round;stroke-width:0.216px;fill-rule:evenodd"/><path d="M199.3,300.4s-3.23,18.64-3.89,22.67-1.07,9.09,13.54,14.15,50.13,6.66,62.12.85c0,0,6.51-2.79,5.95-8.6s-5.29-23.63-5.29-23.63Z" style="fill:#fff;fill-rule:evenodd"/><path d="M199.3,300.4s-3.23,18.64-3.89,22.67c-.58,3.58-1,8,9.16,12.45a24.8,24.8,0,0,1-1.06-12c1.63-8,7-12.77,12.55-12.36s28.23.94,45.33.94c5.86,0,9.87,1.19,12.62,2.75-1.2-4.89-2.28-9-2.28-9Z" style="fill:#e6e4eb;fill-rule:evenodd"/><path d="M271.21,297s1.5,1.88,1.78,8.91a3.36,3.36,0,0,1-2.48,2.43c-2.06.47-43,5.42-71.63-4.32,0,0-2.48-1-3.09-2.77s2.34-8.38,2.34-8.38Z" style="fill:#5f6879;fill-rule:evenodd"/><path d="M191.57,194.39s43.6-28.83,89.07-2.39a23.75,23.75,0,0,1,6.89,7.42,103.1,103.1,0,0,1-.39,36.57c-4.31,23.24-13.12,48.91-13.68,60.34a5.63,5.63,0,0,1-5.06,5c-4.69.56-57.53,3.22-70.46-7.09a4.25,4.25,0,0,1-1.07-3.47c4.46-24-.38-26.62-.22-43.22C196.65,247.51,206.59,205,191.57,194.39Z" style="fill:#97b2bc;fill-rule:evenodd"/><path d="M191.57,194.39s43.6-28.83,89.07-2.39a23.75,23.75,0,0,1,6.89,7.42,99.6,99.6,0,0,1,1.13,24.91c-7-.85-18.84.56-36.31,11.38-27.11,16.79-48.81,21.27-45.87,62.4a25,25,0,0,1-8.54-3.91,4.25,4.25,0,0,1-1.07-3.47c4.46-24-.38-26.62-.22-43.22C196.65,247.51,206.59,205,191.57,194.39Z" style="fill:#8ea7b0;fill-rule:evenodd"/><path d="M202.78,296.86a18.92,18.92,0,0,1-4.84-2.66,4.25,4.25,0,0,1-1.07-3.47c4.46-24-.38-26.62-.22-43.22a140.83,140.83,0,0,0,3.22-26.35h0c1.27-3.38,4.59,20.5,5.4,32.24C205.93,263,201.61,284.52,202.78,296.86Z" style="fill:#7d939d;fill-rule:evenodd"/><path d="M246.8,103.5s-15.93-7-26.42,5.58-3.38,28.86-5.06,43.28S187,191,217.38,205.21c0,0,4.87,1.12,6.18,8.81s13.68,25.67,36.54,12.17,31.48-40.1,15.37-64.27S280.72,103.5,246.8,103.5Z" style="fill:#4f3f55;fill-rule:evenodd"/><path d="M222.89,106.51a22.72,22.72,0,0,0-2.51,2.57c-7,8.43-6.15,18.56-5.31,28.67,6,9.17,14.63,16.85,26.62,17.56,12.8.77,22.14-1.74,28.7-5a56,56,0,0,1-1.26-6.47C256,148.36,224.7,153.93,222.89,106.51Z" style="fill:#56455b;fill-rule:evenodd"/><path d="M215.52,150c-.05.81-.11,1.61-.2,2.4-1.69,14.43-28.3,38.61,2.06,52.85,0,0,4.87,1.12,6.18,8.81s13.68,25.67,36.54,12.17,31.48-40.1,15.37-64.27q-.36-.54-.69-1.08c-3.65,35.8-56.28,27.59-59.26-10.88Z" style="fill:#3f2c44;fill-rule:evenodd"/><path d="M215.44,151.11c0,.42-.07.84-.12,1.25-1.69,14.43-28.3,38.61,2.06,52.85,0,0,4.87,1.12,6.18,8.81s13.68,25.67,36.54,12.17,31.48-40.1,15.37-64.27c0,0,11,17.68-4.1,35.22C256.58,214.3,217.12,206.06,215.44,151.11Z" style="fill:#331c38;fill-rule:evenodd"/><path d="M191,194.78v.11c1.78,1.48,14.63,13.67,6.67,51-.55.88-1.25,2-2,3.33.14-.61.28-1.22.42-1.85,8.95-39.64-5.26-51.05-6-51.61a.52.52,0,0,1-.11-.1A8.88,8.88,0,0,1,191,194.78Z" style="fill:#526675;fill-rule:evenodd"/><path d="M402.42,185.2c0-1.13-2.45-17.41-2.45-17.41a52.3,52.3,0,0,1,22.5,22.09c8.25,15.74,17.62,64.09,13.87,81.33s-25.49,32.6-25.49,32.6Z" style="fill:#e67170;fill-rule:evenodd"/><path d="M402.42,185.2c0-1.13-2.45-17.41-2.45-17.41a52.3,52.3,0,0,1,22.5,22.09,56.22,56.22,0,0,1,2.5,5.65c-3.67,1.48-6.66,4.47-7.5,10-2.42,15.92.81,59.09,6.21,68.53,2.78,4.87,6.86,5.37,10.59,3.3-6.59,14.6-23.42,26.49-23.42,26.49Z" style="fill:#d84f50;fill-rule:evenodd"/><path d="M306.57,340.26s-1.78,3.68,0,16.22h96s6.09-4.23,5.71-20Z" style="fill:#331c38;fill-rule:evenodd"/><path d="M306.39,333.14s-2.53,6.18-1.78,8.62,8.05,10.3,33.54,11.24,51.9-1.5,61.65-7.31,11.52-9,10.59-17.14S306.39,333.14,306.39,333.14Z" style="fill:#fff;fill-rule:evenodd"/><path d="M324.28,177.89l-12.93-4.5s-13.3,12.74-22.67,34.48-19.87,49.84-20.62,58.46,13.5,42,40.48,52.85,8.62-18.37,8.62-18.37-19.49-29.6-20.24-34.85,11.62-14.8,11.62-14.8,39-17.06,37.48-22.3S324.28,177.89,324.28,177.89Z" style="fill:#e67170;fill-rule:evenodd"/><path d="M268.05,267.54c.48,10.16,14.63,41.22,40.49,51.64,5.08,2,8.55,2.67,10.84,2.33a162.69,162.69,0,0,1-2.43-21c-1.34-2.05-8.92-13.67-14.37-23-2.65,12.8-14.94,17.69-23.12,9.52a47.57,47.57,0,0,1-11.41-19.44ZM296.92,266c-.75-5.25,11.62-14.8,11.62-14.8s5.3-2.32,11.91-5.51c2.79-26.85,1.2-41-.65-33-2.16,9.37-10.52,21.12-18.21,37.72S296.92,266,296.92,266Z" style="fill:#d84f50;fill-rule:evenodd"/><path d="M352.38,81h0a16.3,16.3,0,0,1,16.27,16.24v32.39a16.3,16.3,0,0,1-16.27,16.24h0a16.3,16.3,0,0,1-16.27-16.24V97.25A16.3,16.3,0,0,1,352.38,81Z" style="fill:#f4ad85;fill-rule:evenodd"/><rect x="348.81" y="126.67" width="24.46" height="42.41" rx="2.71" style="fill:#f09576"/><path d="M332.84,105.18s-10.77-1.56-13.12-12.13S323.44,67.41,345,74.26h17.9c12.08,0,22.07,2.41,27.95,10.39,9.52,12.94,7.12,41.84-4.55,53.32-13.3,13.09-34.88,6.36-34.76-11.29h0a8.29,8.29,0,0,0-.65-12.31c-2.25-1.81-5.21-1.35-5.21,6.58v7a6.36,6.36,0,0,1-4.8-6.26C340.85,116.48,340.85,104.54,332.84,105.18Z" style="fill:#3f2c44;fill-rule:evenodd"/><path d="M342.41,73.53c.83.21,1.68.45,2.56.73h13c3,24.86,24.73,30.39,38.67,31.35,0,1.77,0,3.56-.13,5.35C362,113.39,347.72,88,342.41,73.53Z" style="fill:#4f3f55;fill-rule:evenodd"/><path d="M332.84,105.18s-10.77-1.56-13.12-12.13a19.58,19.58,0,0,1,1.1-12c-.05.28-2.8,14.29,7.21,14.29s25.77,1.35,28.33,10.93c2.45,9.12,10.27,34.4,37.35,19.06A32.57,32.57,0,0,1,386.27,138c-13.3,13.09-34.88,6.36-34.76-11.29h0a8.29,8.29,0,0,0-.65-12.31c-2.25-1.81-5.21-1.35-5.21,6.58v7a6.36,6.36,0,0,1-4.8-6.26C340.85,116.48,340.85,104.54,332.84,105.18Z" style="fill:#331c38;fill-rule:evenodd"/><path d="M332.43,163.46s-14.52,3.56-21.08,9.93c0,0,20.8,39.54-2.81,77.77,0,0-6.37,64.83-6,72s1.69,10.69,6,14.62,31.67,11.24,64.27,7.12,38.79-14.05,39.54-18.18,4.31-30.16,1.69-72.51,1.93-83.26-17.49-87.64S332.43,163.46,332.43,163.46Z" style="fill:#e67170;fill-rule:evenodd"/><path d="M332.43,163.46a73.71,73.71,0,0,0-14.91,5.63c.24-.09,8.13-3.16,11.32,3.62s-1,46.24,45,46.24c0,0-15-37.77-15-43.81,0-3-5.31-7.84-10.6-11.86C339,163.27,332.43,163.46,332.43,163.46Z" style="fill:#d84f50;fill-rule:evenodd"/><path d="M319.8,212.71a75.12,75.12,0,0,1-11.26,38.45s-6.37,64.83-6,72,1.69,10.69,6,14.62c1.89,1.73,8.23,4.11,17.5,5.88-10.28-22.45-11.08-57.23-7.32-83.88,5-35.73,3.24-56.4,1.08-47Z" style="fill:#d84f50;fill-rule:evenodd"/><path d="M332.43,163.46a7.12,7.12,0,0,1,6.09,3.56c2.25,3.75,2,48.35,29.89,51.91,17.76,2.26,27.48-17,29.7-34.46,1.83-14.4-2.64-33.22-24.5-32.49-.12,0-.34,0-.34.1v3.09c-1.49,6.56-11.22,5.07-15.92,2.21C349.65,152.68,339.44,148.71,332.43,163.46Z" style="fill:#fff;fill-rule:evenodd"/><path d="M375.47,152c-.6,0-1.23,0-1.86,0-.12,0-.34,0-.34.1v3.09c-1.33,5.82-9.15,5.3-14.17,3.1h0C382.07,173.24,385,153.1,375.47,152Z" style="fill:#f8cfbe;fill-rule:evenodd"/><path d="M56.93,191l-2.5-.15s-3,2-3.84,4.1-11.54,28.45-16.92,46.4c0,0,13.11,1.62,16.08,11.54,0,0,17.08-23,18-26.78A37.43,37.43,0,0,0,56.93,191Z" style="fill:#fff;fill-rule:evenodd"/><path d="M56.93,191l-2.5-.15a15.27,15.27,0,0,0-2.4,2c17.21,6.12,6.93,36,.7,45.23a16.44,16.44,0,0,1-9.07,7,14.28,14.28,0,0,1,6.09,7.81s17.08-23,18-26.78A37.43,37.43,0,0,0,56.93,191Z" style="fill:#fdf1ef;fill-rule:evenodd"/><path d="M147.78,203.72c-2.52,3.48-7.32,11.78-4,20.94l1.43.16c-3.63-9,1.34-17.31,3.73-20.54l-1.16-.56Zm2.36,1.15,1.15.56c-2.46,3.51-6.68,11.26-3.45,19.7l-1.41-.17C143.47,216.37,147.59,208.58,150.14,204.87Z" style="fill:#3f2c44;fill-rule:evenodd"/><path d="M35.34,236c3.93.47,13.79,2.53,18.32,11.51l-.85,1.17c-4.23-9.17-14.28-11.06-17.87-11.45.13-.41.26-.82.4-1.23Zm-.8,2.48c-.13.42-.25.82-.38,1.23,4,.54,13,2.7,17.06,11.14l.85-1.16C47.74,241.36,38.8,239.09,34.54,238.47Z" style="fill:#3f2c44;fill-rule:evenodd"/><path d="M90.62,187.36c-.29,21-29.42-4.82-16.66-5.11C74,182.25,77.65,186.66,90.62,187.36Z" style="fill:#3f2c44;fill-rule:evenodd"/><path d="M93.71,181.65s2.09,4.36-3.09,5.71c0,0,1.91,5.78,5.65,4.85S98.75,180.42,93.71,181.65Z" style="fill:#3f2c44;fill-rule:evenodd"/><path d="M80.57,214.76l8.56-.77a.92.92,0,0,1,1,.93v2.76a1.14,1.14,0,0,1-1,1.11l-8.56.78a.92.92,0,0,1-1-.93v-2.76A1.15,1.15,0,0,1,80.57,214.76Z" style="fill:#fff;fill-rule:evenodd"/><path d="M182.68,62.48H134.12a7.39,7.39,0,0,0-7.37,7.36v52a.83.83,0,0,0,1.4.59l12.56-12.56h42a7.39,7.39,0,0,0,7.37-7.37V69.84A7.39,7.39,0,0,0,182.68,62.48Z" style="fill:#fff;fill-rule:evenodd"/><path d="M244.62,34.32h48.57a7.39,7.39,0,0,1,7.37,7.36v52a.83.83,0,0,1-1.41.58L286.6,81.68h-42a7.38,7.38,0,0,1-7.36-7.36V41.68A7.38,7.38,0,0,1,244.62,34.32Z" style="fill:#fff;fill-rule:evenodd"/><path d="M266.84,65.12c-.44-.6-1.56-12.16-2.09-17.93a16.75,16.75,0,0,1,0-4.58c.81-3.81,7.44-3.92,8.34-.12a15.65,15.65,0,0,1,0,4.7c-.53,5.77-1.65,17.33-2.08,17.93a2.93,2.93,0,0,1-4.14,0Zm2.07,3.68a2.6,2.6,0,1,1-2.6,2.6A2.6,2.6,0,0,1,268.91,68.8Z" style="fill:#e67170;fill-rule:evenodd"/><path d="M109,56.05a.74.74,0,1,0-1.48,0v1.73h-1.73a.74.74,0,0,0-.73.74.73.73,0,0,0,.73.73h1.73V61A.74.74,0,0,0,109,61V59.25h1.73a.73.73,0,0,0,.73-.73.74.74,0,0,0-.73-.74H109Z" style="fill:#fff;fill-rule:evenodd"/><path d="M304.6,141.31a.74.74,0,0,0-1.48,0V143h-1.73a.74.74,0,0,0,0,1.48h1.73v1.73a.74.74,0,0,0,1.48,0v-1.73h1.73a.74.74,0,0,0,0-1.48H304.6Z" style="fill:#fff;fill-rule:evenodd"/><path d="M283.55,13.42a.74.74,0,1,0-1.47,0v1.73h-1.73a.74.74,0,1,0,0,1.47h1.73v1.74a.74.74,0,0,0,1.47,0V16.62h1.73a.74.74,0,1,0,0-1.47h-1.73Z" style="fill:#fff;fill-rule:evenodd"/><path d="M185.34,28a.74.74,0,0,0-.74-.74.73.73,0,0,0-.73.74v1.73h-1.74a.74.74,0,0,0,0,1.47h1.74v1.74a.73.73,0,0,0,.73.73.74.74,0,0,0,.74-.73V31.19h1.73a.74.74,0,1,0,0-1.47h-1.73Z" style="fill:#fff;fill-rule:evenodd"/><path d="M412.52,151.57a.74.74,0,1,0-1.47,0v1.73h-1.73a.74.74,0,1,0,0,1.47h1.73v1.73a.74.74,0,1,0,1.47,0v-1.73h1.74a.74.74,0,0,0,0-1.47h-1.74Z" style="fill:#fff;fill-rule:evenodd"/><path d="M139.47,187.92a.74.74,0,0,0-1.47,0v1.74h-1.73a.74.74,0,1,0,0,1.47H138v1.73a.74.74,0,1,0,1.47,0v-1.73h1.73a.74.74,0,1,0,0-1.47h-1.73Z" style="fill:#fff;fill-rule:evenodd"/><path d="M214.48,47.81a.74.74,0,1,0-1.47,0v1.73h-1.74a.74.74,0,0,0,0,1.47H213v1.74a.74.74,0,0,0,1.47,0V51h1.73a.74.74,0,1,0,0-1.47h-1.73Z" style="fill:#719fd4;fill-rule:evenodd"/><path d="M286.79,122.28a.74.74,0,1,0-1.47,0V124h-1.74a.74.74,0,0,0,0,1.47h1.74v1.74a.74.74,0,0,0,1.47,0v-1.74h1.73a.74.74,0,1,0,0-1.47h-1.73Z" style="fill:#719fd4;fill-rule:evenodd"/><path d="M138.39,139.18a.74.74,0,0,0-1.47,0v1.74h-1.73a.74.74,0,1,0,0,1.47h1.73v1.73a.74.74,0,1,0,1.47,0v-1.73h1.73a.74.74,0,1,0,0-1.47h-1.73Z" style="fill:#719fd4;fill-rule:evenodd"/><path d="M167.43,237.76a.74.74,0,1,0-1.47,0v1.73h-1.74a.74.74,0,0,0,0,1.47H166v1.74a.74.74,0,0,0,1.47,0V241h1.73a.74.74,0,1,0,0-1.47h-1.73Z" style="fill:#719fd4;fill-rule:evenodd"/><path d="M174.47,176.39c0-5.2,2.27-7.43,3.33-9.62.75-1.56,1.32-7.76,1.29-9.25s-1.18-12.17-3.46-6a12.17,12.17,0,0,0-.9-4.77c-.94-1.78-2.27,2-2.27,2s-.19-3.86-2-3.82-1.27,6.27-1.58,4.52-.76-4.42-2.67-4.13l-.32.2c-.38.25-.74,12.79-.65,14.67a9.25,9.25,0,0,0-4.72-3.69c-.78-.32-1.79.05-1.93.49s1.92,2.88,2.08,3.64c1.27,6,5.3,6.87,7.47,11.09-.11.76.49,3,.33,3.92C171.91,176.21,172,175.88,174.47,176.39Z" style="fill:#f4ad85;fill-rule:evenodd"/></g></g></svg>