<svg enable-background="new 0 0 54.819 54.819" viewBox="0 0 54.819 54.819" xmlns="http://www.w3.org/2000/svg"><path d="m11.217 19.913c-.335 0-.663-.169-.852-.476-.614-.995-1.761-2.146-3.078-2.104-.56-.03-1.014-.418-1.03-.969-.017-.553.417-1.014.969-1.031 2.107-.063 3.904 1.534 4.841 3.055.29.47.144 1.086-.326 1.376-.163.101-.345.149-.524.149z" fill="#436b1c"/><path d="m31.684 6.597c-.134-1.948-1.753-3.488-3.735-3.488-.006 0-.011.001-.017.001.035-.295.015-.607-.08-.932-.268-.914-1.072-1.616-2.018-1.729-.776-.092-1.488.186-1.987.679-.475-.429-1.097-.697-1.787-.697-1.479 0-2.677 1.199-2.677 2.677 0 .005.001.009.001.014-1.797.136-3.214 1.635-3.214 3.467 0 .28.037.551.099.812-2.139.089-3.847 1.847-3.847 4.008 0 .732.199 1.416.541 2.007-.657.54-1.077 1.359-1.077 2.276 0 .838.355 1.589.917 2.124 2.412-1.971 4.946 4.621 7.93 9.884.991 1.748 11.698-.114 12.551.972.972-.874 1.6-16.094 1.627-17.431.042-2.145-1.32-3.975-3.227-4.644z" fill="#88c057"/><path d="m33.053 26.533.713-.427c1.32-.792 2.968-.792 4.287 0l.713.427c1.32.792 2.968.792 4.287 0l2.015-.896c.296-.826.502-1.424.584-1.689 1.88-6.047 3.091-12.414 3.256-18.765.066-2.554-2.046-6.537-5.555-4.727-3.449 1.778-5.919 8.597-7.655 11.835-2.466 4.601-4.416 9.605-5.805 14.704 1.058.267 2.196.116 3.16-.462z" fill="#eeaf4b"/><path d="m7.055 25.506 1.345.807c1.545.927 3.475.927 5.02 0l.346-.208c1.32-.792 2.968-.792 4.287 0l.713.427c.775.465 1.663.649 2.531.568.64-2.067.425-4.651-.567-6.4-3.336-5.885-6.111-4.686-8.781-2.131-.512.49-1.138.849-1.82 1.044-2.928.837-5.089 2.206-3.86 5.934.217-.158.519-.201.786-.041z" fill="#ed3f32"/><path d="m35.592 24.356c-.106 0-.215-.017-.321-.053-.523-.178-.803-.746-.625-1.269.667-1.962 2.809-3.012 4.768-2.352.919.313 1.92-.181 2.232-1.1.177-.523.743-.805 1.269-.626.523.178.803.746.625 1.269-.666 1.963-2.806 3.017-4.768 2.352-.918-.312-1.919.183-2.232 1.1-.143.418-.532.679-.948.679z" fill="#a46f3e"/><path d="m37.957 17.389c-.106 0-.215-.017-.321-.053-.523-.178-.803-.746-.625-1.269.323-.951.997-1.72 1.897-2.164s1.919-.511 2.871-.188c.921.314 1.92-.181 2.232-1.101.177-.524.745-.805 1.268-.626.523.178.803.746.625 1.269-.666 1.964-2.806 3.016-4.768 2.353-.445-.152-.923-.121-1.344.087s-.736.567-.888 1.013c-.141.417-.53.679-.947.679z" fill="#a46f3e"/><path d="m40.323 10.421c-.106 0-.215-.017-.322-.053-.523-.178-.803-.746-.625-1.269.584-1.722 2.463-2.646 4.185-2.064.33.112.682.09.993-.063s.544-.419.656-.748c.177-.523.744-.804 1.269-.626.523.178.803.746.625 1.269-.284.835-.875 1.51-1.665 1.899-.791.39-1.686.447-2.521.164-.678-.231-1.418.134-1.648.813-.142.416-.531.678-.947.678z" fill="#a46f3e"/><path d="m23.37 14.095c-.945 1.257-2.436 2.745-1.862 5.373l1.544 7.065h.001l.713-.427c1.32-.792 2.968-.792 4.287 0l.713.427c.58.348 1.127.463 1.127.463 1.042-3.823 2.399-7.593 4.052-11.179-.774-1.936-2.427-2.584-3.627-3.247-.007-.004-.014-.008-.02-.011-.759-.435-.806-1.474-.235-2.136.225-.261.329-.62.251-.98l-.121-.552c-.133-.608-.739-.996-1.346-.863l-6.077 1.326c-.608.133-.996.739-.863 1.346l.121.552c.08.368.334.653.656.792.739.319 1.19 1.144.812 1.855-.036.067-.078.132-.126.196z" fill="#dae7ef"/><path d="m29.746 10.899-6.879 1.503c-.759.166-1.517-.32-1.683-1.079l-.099-.452c-.166-.759.32-1.517 1.079-1.683l6.879-1.503c.759-.166 1.517.32 1.683 1.079l.099.452c.166.76-.32 1.517-1.079 1.683z" fill="#fff"/><path d="m46.816 25.332-1.745 25.029c-.128 2.499-2.191 4.459-4.693 4.459h-28.071c-2.502 0-4.565-1.96-4.693-4.459l-1.703-24.208c-.029-.569.588-.94 1.077-.647l1.345.807c1.545.927 3.475.927 5.02 0l.346-.208c1.32-.792 2.968-.792 4.287 0l.713.428c1.32.792 2.968.792 4.287 0l.713-.428c1.32-.792 2.968-.792 4.287 0l.713.428c1.32.792 2.968.792 4.287 0l.713-.428c1.32-.792 2.968-.792 4.287 0l.713.428c1.32.792 2.968.792 4.287 0l3.387-1.505c.215-.096.455.069.443.304z" fill="#fbd490"/><g fill="#e0b877"><path d="m17.91 42h-7c-.552 0-1-.447-1-1s.448-1 1-1h7c.552 0 1 .447 1 1s-.448 1-1 1z"/><path d="m19.91 46h-9c-.552 0-1-.447-1-1s.448-1 1-1h9c.552 0 1 .447 1 1s-.448 1-1 1z"/><path d="m21.91 50h-11c-.552 0-1-.447-1-1s.448-1 1-1h11c.552 0 1 .447 1 1s-.448 1-1 1z"/><path d="m27.91 50h-2c-.552 0-1-.447-1-1s.448-1 1-1h2c.552 0 1 .447 1 1s-.448 1-1 1z"/></g></svg>