<svg height="571.47998" viewBox="0 0 524.45331 571.47998" width="524.45331" xmlns="http://www.w3.org/2000/svg"><g transform="matrix(.13333333 0 0 -.13333333 0 571.48)"><path d="m1211.1 248.352c232.26 200.707 255.56 531.16 215.56 821.918-6.67 48.53-6.62 100.43-34.2 140.78-27.58 40.33-84.65 63.96-126.14 38.94-34.42-20.76-45.83-64.46-62.48-101.34-22.14-49.08-58.3-91.52-102.97-120.88-29.36-19.3-66.72-33.098-99.07-19.37-44.405 18.84-55.347 76.37-60.042 124.86-8.746 90.34-17.504 180.68-26.25 271.01-4.695 48.47-9.656 97.94-29.461 142.37-19.809 44.42-57.508 83.69-104.914 91.85-47.43 8.15-101.664-24.3-106.5-72.71-2.02-20.16 4.117-40.23 4.844-60.46.726-20.26-6.344-43.47-24.864-51.04-18.75-7.67-39.55 4.05-55.492 16.74-55.047 43.75-95.473 103.26-133.644 162.65-38.172 59.39-75.567 120.36-126.442 169.03-50.863 48.66-117.976 84.46-187.758 81.24-69.7848-3.23-139.277-53.68-149.78481-123.59-10.53516-70.11 36.45701-135.29 85.51951-186.09 72.7773-75.39 156.3553-140.07 247.2693-191.37 16.387-9.27 34.145-19.27 41.836-36.62 13.852-31.21-13.437-66.43-44.23-80.34-34.867-15.75-74.434-16.04-111.742-24.38-37.317-8.34-76.512-29.23-87.118-66.4-14.734-51.56 32.032-99.19 76.278-128.97 88.609-59.66 187.32-103.809 290.465-129.961 36.976-9.367 75.66-16.938 106.976-39.008 31.32-22.09 53.152-63.832 39.313-99.731-13.848-35.949-57.282-51.468-95.325-48.378-38.019 3.05-73.535 19.878-110.488 29.628-69.16 18.258-154.652 4.801-191.359-57.128-24.125-40.723-21.16-93.633-2.332-137.243 18.816-43.621 51.57-79.48 85.789-112.148 119.609-114.172 266.59-200.852 426.551-238.469 159.937-37.613 304.525-37.344 452.205 34.61" fill="#f3f2f1"/><path d="m1237.24 32.4297c-22.49 114.5003-61.92 248.3903-120.33 391.0703-58.14 142.82-134.847 294.082-220.512 449.539-21.554 38.781-42.867 77.109-63.855 114.871-21.039 37.65-41.91 74.99-64.574 110.26-45.039 70.73-93.727 135.31-141.867 195.15-48.122 59.9-95.977 114.98-141.09 166.16-45.246 51.1-88.321 97.93-129.395 138.94-81.926 82.36-155.73 140.83-208.035 178.91-26.117 19.14-46.867 33.31-61.0664 42.72-6.8242 4.47-12.1718 7.97-16.2031 10.62-3.6836 2.33-5.6055 3.47-5.6914 3.34-.0977-.13 1.6602-1.53 5.1758-4.11 3.9062-2.83 9.1094-6.58 15.7109-11.35 13.8399-9.9 34.2582-24.52 60.0312-44.05 51.59-38.9 124.508-97.93 205.621-180.62 40.68-41.18 83.379-88.14 128.305-139.39 44.851-51.36 92.422-106.54 140.262-166.41 47.824-59.85 96.179-124.3 140.867-194.71 22.492-35.09 43.136-72.13 64.203-109.89 20.973-37.742 42.246-76.058 63.785-114.82 85.59-155.351 162.328-306.129 220.718-448.34 58.64-142.07 98.54-275.23 121.74-389.1481" fill="#dadbd8"/><path d="m765.383 1098.25c.609-.03 1.496 7.5 2.597 21.16 1.168 13.64 2.2 33.44 3.114 57.92 1.875 48.93 2.152 116.61 2.179 191.21.02 74.65 1.262 142.12 3.875 190.89 1.243 24.39 2.434 44.13 3.446 57.75.929 13.64 1.152 21.23.539 21.31-.617.07-2.008-7.37-3.996-20.94-2.074-13.53-4.246-33.25-6.285-57.66-4.25-48.84-6.508-116.59-6.528-191.3.16-73.62.317-140.23.434-191.12-.09-22.98-.188-42.36-.262-57.92-.012-13.67.258-21.26.887-21.3" fill="#dadbd8"/><path d="m130.574 1150.39c.047-.61 9.016-.73 25.153-.41 16.128.23 39.457.69 68.3.32 57.676-.28 137.332-3.44 225.075-10.78 87.746-7.49 166.867-17.66 223.878-26.67 28.555-4.3 51.559-8.4 67.481-11.14 15.914-2.81 24.777-4.07 24.922-3.46.129.62-8.5 3.04-24.238 6.92-15.747 3.8-38.637 8.87-67.137 14-56.91 10.66-136.184 21.86-224.195 29.39-87.993 7.35-167.997 9.52-225.84 8.14-28.93-.46-52.309-1.87-68.438-3.2-16.113-1.41-24.996-2.47-24.961-3.11" fill="#dadbd8"/><path d="m1108.07 434.16c.29-.09 1.48 2.672 3.49 8.039 2.25 6.391 5 14.192 8.32 23.633 7.14 20.547 16.7 50.559 28.01 87.789 22.69 74.449 50.79 178.27 80.25 293.25 29.49 115.027 56.58 218.969 77.68 293.779 10.37 36.39 18.91 66.31 25.25 88.54 2.7 9.65 4.92 17.61 6.74 24.14 1.44 5.54 2.07 8.5 1.76 8.62-.29.08-1.48-2.69-3.48-8.06-2.25-6.39-5-14.17-8.33-23.61-7.14-20.55-16.69-50.56-28.01-87.8-22.69-74.44-50.79-178.261-80.26-293.289-29.47-115-56.57-218.921-77.67-293.75-10.39-36.359-18.91-66.312-25.25-88.519-2.7-9.66-4.91-17.633-6.73-24.141-1.45-5.562-2.07-8.519-1.77-8.621" fill="#dadbd8"/><path d="m252.953 615.52c-.051-.309 2.906-1.168 8.559-2.54 6.699-1.5 14.918-3.339 24.867-5.57 22.945-4.918 53.91-11.539 91.59-19.578 77.332-16.562 183.871-40.633 301.566-67.402 117.731-26.789 224.598-49.91 302.293-64.86 38.852-7.488 70.342-13.23 92.182-16.75 10.09-1.558 18.41-2.851 25.17-3.898 5.77-.801 8.84-1.063 8.89-.762.05.32-2.91 1.18-8.56 2.559-6.68 1.492-14.9 3.32-24.87 5.562-22.94 4.91-53.89 11.508-91.57 19.578-77.336 16.532-183.89 40.621-301.617 67.403-117.695 26.789-224.551 49.898-302.246 64.859-38.848 7.488-70.336 13.219-92.191 16.738-10.094 1.571-18.399 2.86-25.176 3.911-5.774.8-8.824 1.05-8.887.75" fill="#dadbd8"/><path d="m973.371 2458.39c-7.488 0-14.676 4.21-18.148 11.41l-43.36 90.27c-2.734 5.67-2.64 12.31.235 17.9 2.882 5.6 8.222 9.53 14.429 10.61 16.274 2.85 31.2 13.05 40.938 28.01 8.969 13.76 12.113 29.71 8.617 43.77-3.473 14.01-13.734 26.77-28.164 35.02-15.449 8.81-33.773 11.37-49.105 6.78-31.305-9.35-53.715-46-48.942-80.04 1.547-11-6.113-21.16-17.109-22.71-11.196-1.53-21.172 6.12-22.715 17.12-7.516 53.5 27.141 109.21 77.269 124.17 25.989 7.76 55.379 3.98 80.543-10.4 23.93-13.66 41.151-35.62 47.261-60.26 6.17-24.85 1.09-52.33-13.95-75.41-10.869-16.68-25.928-29.76-43.115-37.85l33.433-69.57c4.805-10.01.59-22.02-9.425-26.83-2.817-1.35-5.778-1.99-8.692-1.99" fill="#dadbd8"/><path d="m1016.56 2432.43c4.15-8.08.95-18-7.14-22.14-8.08-4.14-17.994-.95-22.143 7.14-4.14 8.08-.941 18 7.145 22.14 8.088 4.14 17.998.95 22.138-7.14" fill="#dadbd8"/><path d="m423.77 2760.81c-5.231 0-10.25 2.94-12.672 7.97l-30.285 63.04c-1.911 3.97-1.844 8.6.167 12.51 2.012 3.91 5.743 6.65 10.075 7.41 11.367 1.98 21.785 9.11 28.586 19.55 6.265 9.61 8.457 20.76 6.015 30.57-2.422 9.79-9.59 18.7-19.664 24.45-10.789 6.17-23.586 7.95-34.297 4.74-21.859-6.53-37.511-32.12-34.172-55.89 1.079-7.68-4.273-14.78-11.953-15.86-7.812-1.07-14.781 4.27-15.859 11.95-5.25 37.36 18.949 76.27 53.961 86.72 18.148 5.41 38.676 2.78 56.242-7.27 16.715-9.54 28.742-24.88 33.008-42.08 4.308-17.35.762-36.55-9.746-52.66-7.586-11.65-18.102-20.78-30.106-26.43l23.348-48.59c3.359-6.99.418-15.38-6.582-18.74-1.969-.94-4.031-1.39-6.066-1.39" fill="#f3f2f1"/><path d="m453.93 2742.69c2.894-5.65.664-12.57-4.985-15.47-5.644-2.89-12.57-.66-15.465 4.99-2.89 5.65-.66 12.57 4.989 15.46 5.644 2.9 12.57.66 15.461-4.98" fill="#f3f2f1"/><path d="m2918.99 2726.82c2.23-4.73 1.73-10.53-1.78-14.87l-44.03-54.33c-2.77-3.43-6.98-5.35-11.37-5.2-4.4.14-8.48 2.34-11.02 5.93-6.65 9.43-17.54 15.8-29.9 17.48-11.37 1.55-22.37-1.24-30.2-7.64-7.82-6.38-12.81-16.67-13.69-28.24-.95-12.38 2.91-24.72 10.39-33.02 15.25-16.97 45.08-20.17 65.14-6.98 6.48 4.26 15.19 2.46 19.45-4.02 4.3-6.61 2.46-15.19-4.03-19.45-31.52-20.73-77.04-15.49-101.46 11.68-12.66 14.09-19.06 33.77-17.49 53.94 1.47 19.19 10.19 36.62 23.91 47.84 13.84 11.31 32.72 16.32 51.77 13.72 13.78-1.88 26.53-7.47 36.78-15.91l33.92 41.89c4.89 6.03 13.72 6.96 19.75 2.07 1.7-1.37 2.99-3.05 3.86-4.89" fill="#f3f2f1"/><path d="m2922.47 2761.84c3.87 5.02 11.08 5.97 16.11 2.1s5.97-11.08 2.11-16.11c-3.87-5.03-11.09-5.97-16.12-2.1-5.03 3.86-5.96 11.08-2.1 16.11" fill="#f3f2f1"/><path d="m2772.37 4031.27c2.23-4.73 1.72-10.52-1.78-14.86l-44.02-54.34c-2.78-3.42-6.99-5.35-11.38-5.2-4.4.15-8.47 2.34-11.01 5.94-6.65 9.42-17.56 15.79-29.91 17.48-11.36 1.55-22.37-1.24-30.19-7.65-7.82-6.37-12.81-16.66-13.7-28.23-.95-12.39 2.91-24.72 10.39-33.03 15.25-16.96 45.08-20.17 65.14-6.98 6.49 4.26 15.19 2.47 19.44-4.01 4.32-6.61 2.47-15.19-4.01-19.46-31.53-20.72-77.04-15.49-101.46 11.68-12.67 14.09-19.06 33.77-17.5 53.95 1.47 19.19 10.19 36.62 23.91 47.83 13.85 11.32 32.72 16.33 51.78 13.73 13.77-1.88 26.52-7.48 36.77-15.91l33.92 41.89c4.89 6.02 13.73 6.95 19.76 2.06 1.69-1.37 2.98-3.04 3.85-4.89" fill="#f3f2f1"/><path d="m2775.85 4066.29c3.87 5.03 11.09 5.98 16.12 2.11s5.96-11.08 2.11-16.11c-3.87-5.04-11.09-5.98-16.12-2.11s-5.97 11.08-2.11 16.11" fill="#f3f2f1"/><path d="m1662.18 3830.75c6.8 0 13.32-3.82 16.47-10.35l39.35-81.92c2.48-5.16 2.4-11.17-.21-16.25-2.62-5.09-7.46-8.65-13.1-9.63-14.76-2.58-28.31-11.84-37.15-25.41-8.14-12.49-10.99-26.97-7.82-39.73 3.15-12.71 12.47-24.29 25.56-31.77 14.02-8.01 30.65-10.32 44.57-6.16 28.4 8.49 48.74 41.74 44.41 72.64-1.41 9.98 5.54 19.2 15.52 20.6 10.16 1.39 19.22-5.55 20.62-15.53 6.82-48.55-24.63-99.11-70.12-112.69-23.59-7.03-50.26-3.61-73.09 9.45-21.72 12.39-37.35 32.32-42.9 54.68-5.6 22.55-.98 47.49 12.67 68.43 9.86 15.14 23.52 27.01 39.12 34.35l-30.34 63.13c-4.36 9.1-.54 20 8.55 24.36 2.56 1.22 5.24 1.8 7.89 1.8" fill="#dadbd8"/><path d="m1622.99 3854.31c-3.76 7.34-.86 16.33 6.48 20.09 7.33 3.76 16.33.86 20.09-6.47 3.76-7.34.86-16.34-6.48-20.1s-16.34-.86-20.09 6.48" fill="#dadbd8"/><path d="m3018.78 2212.76c6.8 0 13.32-3.82 16.47-10.36l39.34-81.92c2.49-5.15 2.41-11.17-.2-16.25-2.62-5.08-7.46-8.65-13.1-9.63-14.76-2.57-28.31-11.83-37.16-25.41-8.13-12.49-10.98-26.96-7.81-39.72 3.15-12.73 12.46-24.3 25.56-31.78 14.01-8 30.65-10.32 44.56-6.15 28.41 8.47 48.75 41.74 44.41 72.63-1.39 9.98 5.55 19.2 15.53 20.61 10.17 1.39 19.22-5.56 20.62-15.54 6.81-48.55-24.63-99.1-70.12-112.68-23.59-7.04-50.27-3.62-73.1 9.44-21.72 12.39-37.34 32.32-42.89 54.68-5.59 22.55-.98 47.5 12.67 68.44 9.86 15.13 23.52 27 39.12 34.34l-30.34 63.14c-4.37 9.09-.54 19.99 8.55 24.35 2.56 1.22 5.24 1.81 7.89 1.81" fill="#dadbd8"/><path d="m2979.58 2236.31c-3.76 7.34-.86 16.34 6.49 20.1 7.33 3.76 16.33.86 20.09-6.48s.85-16.34-6.48-20.1c-7.34-3.76-16.34-.86-20.1 6.48" fill="#dadbd8"/><path d="m3291.74 1683.39s-76.87 59.1-189-126.86c-112.14-185.98-157.35-294.62-157.35-294.62s-28.88-38.59-54.77-10.17c-25.89 28.41-58.59 106.11-106.76 95.98-49.96-10.51-69.99-64-66.39-144.97 3.61-80.97 5-258.641 5.06-274.719.07-15.769-10.56-38.242-31.31-21.711-20.73 16.532-136.21 165.19-203.47 106.17-67.27-59.01-20.16-282.931-15.48-307.498 4.69-24.582-.77-34.551-12.66-39.691-11.87-5.16-45.98 48.469-80.56 89.41-34.57 40.937-81.84 82.34-117.8 45.039-35.95-37.301-58.3-201.191 79.3-479.801l72.22-124.929 144.91-2.29c310.43 13.989 443.16 112.68 458.48 162.18 15.31 49.488-43.77 70.891-96.31 81.41-52.55 10.52-115.98 14.5-117.2 27.399-1.23 12.902 4.86 22.48 28.64 30.242 23.79 7.769 242.62 74.609 261.84 162 19.21 87.398-166.73 116.769-191.22 126.937-24.49 10.192-9.94 30.364 3.9 37.911 14.11 7.703 170.38 92.261 243.03 128.191s109.83 79.29 94.91 128.11c-14.38 47.08-98.21 38.21-135.59 47.16-37.39 8.97-17.53 52.88-17.53 52.88s73.31 92.04 182.05 280.02c108.73 187.98 17.42 227.31 17.42 227.31" fill="#e7e8e5"/><path d="m3191.04 1517.01s-.65-1.41-2.08-4.06c-1.56-2.78-3.71-6.66-6.51-11.67-5.89-10.37-14.42-25.39-25.37-44.65-22.07-38.75-54.41-94.59-94.64-163.45-80.4-137.74-193.06-327.078-318.15-535.789-125.14-208.782-238.23-397.86-319.32-535.18-40.41-68.582-73.13-124.1407-95.86-162.711-11.26-19.0898-20.03-33.9609-26.09-44.2305-2.96-4.8984-5.24-8.71091-6.88-11.44919-1.59-2.55859-2.48-3.82031-2.48-3.82031s.63 1.41016 2.08 4.05859c1.55 2.78125 3.71 6.66021 6.5 11.67191 5.89 10.3711 14.42 25.3789 25.36 44.6406 22.07 38.75 54.41 94.5899 94.64 163.4379 80.4 137.75 193.07 327.101 318.2 535.882 125.1 208.711 238.18 397.779 319.27 535.099 40.4 68.58 73.13 124.14 95.87 162.72 11.25 19.08 20.03 33.95 26.09 44.23 2.95 4.9 5.25 8.71 6.89 11.45 1.57 2.57 2.48 3.82 2.48 3.82" fill="#dadbd8"/><path d="m2825.22 1237.18c.3.07 1.33-3.5 2.93-10.02 1.63-6.5 3.71-15.98 6.17-27.71 4.88-23.48 10.79-56.08 16.66-92.16 5.65-35.62 10.77-67.8 14.69-92.44 1.83-11.09 3.38-20.44 4.63-27.971 1.12-6.59 1.6-10.277 1.29-10.348-.3-.07-1.35 3.489-3 10-1.61 6.508-3.7 15.999-6.04 27.759-4.65 23.54-10.13 56.19-15.99 92.28-5.91 35.54-11.26 67.69-15.36 92.29-1.88 11.09-3.48 20.43-4.76 27.96-1.08 6.61-1.52 10.3-1.22 10.36" fill="#dadbd8"/><path d="m2884.63 973.031c-.25 1.211 66.41 16.348 148.88 33.809 82.5 17.47 149.57 30.65 149.82 29.44.26-1.21-66.39-16.35-148.89-33.81-82.47-17.478-149.55-30.65-149.81-29.439" fill="#dadbd8"/><path d="m2678.04 661.141c.04.3 3.83.191 10.65-.282 7.75-.57 17.41-1.3 28.88-2.148 24.38-1.789 58.06-4.129 95.3-5.34 37.27-1.289 71.03-1.289 95.47-1.082 11.51.082 21.19.152 28.96.203 6.83.008 10.62-.121 10.64-.441.01-.301-3.75-.75-10.57-1.301-6.83-.539-16.72-1.16-28.96-1.629-24.46-1.012-58.32-1.519-95.68-.23-37.37 1.218-71.11 4.05-95.44 6.648-12.17 1.359-22 2.563-28.78 3.59-6.78 1-10.5 1.691-10.47 2.012" fill="#dadbd8"/><path d="m2571.71 888.238c.28.133 2.07-2.879 5.06-8.457 3.35-6.472 7.45-14.41 12.31-23.781 10.2-20.168 24.03-48.16 39.05-79.199 15.02-31.051 28.4-59.27 37.88-79.781 4.33-9.622 8.02-17.778 11.01-24.411 2.51-5.808 3.77-9.078 3.49-9.218-.27-.129-2.06 2.879-5.06 8.461-3.35 6.457-7.45 14.41-12.29 23.777-10.22 20.172-24.05 48.16-39.07 79.223-15.01 31.027-28.39 59.25-37.88 79.757-4.33 9.621-8.01 17.782-11.01 24.411-2.51 5.812-3.77 9.082-3.49 9.218" fill="#dadbd8"/><path d="m2354.35 636.059c.28.14 2.53-3.739 6.37-10.879 4.14-7.93 9.47-18.141 15.88-30.418 13.23-25.77 31.23-61.512 50.85-101.114 19.64-39.609 37.19-75.578 49.69-101.707 5.89-12.531 10.79-22.972 14.6-31.062 3.36-7.367 5.08-11.508 4.81-11.649-.29-.14-2.53 3.739-6.37 10.879-4.14 7.922-9.47 18.153-15.88 30.422-13.22 25.77-31.23 61.52-50.86 101.117-19.63 39.602-37.19 75.571-49.69 101.704-5.89 12.519-10.79 22.957-14.6 31.046-3.35 7.383-5.07 11.524-4.8 11.661" fill="#dadbd8"/><path d="m2495.08 357.051c.02.308 4.83.289 13.5 0 9.47-.379 21.82-.852 36.72-1.43 30.98-1.16 73.79-2.609 121.1-2.871 47.32-.328 90.16.5 121.16 1.32 14.89.379 27.26.692 36.73.93 8.67.191 13.48.148 13.5-.16.02-.301-4.76-.848-13.41-1.578-8.65-.723-21.19-1.582-36.69-2.36-31.01-1.632-73.92-2.961-121.32-2.621-47.38.25-90.25 2.199-121.24 4.18-15.49 1.027-28.02 1.988-36.66 2.84-8.64.828-13.42 1.429-13.39 1.75" fill="#dadbd8"/><path d="m3764.17 32.9805c0-1.4297-810.78-2.6016-1810.71-2.6016-1000.272 0-1810.886 1.1719-1810.886 2.6016 0 1.4414 810.614 2.6093 1810.886 2.6093 999.93 0 1810.71-1.1679 1810.71-2.6093" fill="#17282f"/><path d="m2886.44 651.121-152.31 726.419s-89.27 350.1-396.64 470.75l-21.21 6.51-29.61 9.11c-12.35 4.82-62.82 20.83-76.07 24.95-414.44 143.65-524.39 106.28-956.25-41.09 0 0-191.86-51.61-284.834-301.89-92.985-250.27-270.993-641.689-270.993-641.689l430.847-152.132 82.59 122.671v-452.941-386.3398h511.28 673.71l-32.7 386.3398-5.7 475.883z" fill="#f03d5f"/><path d="m1680.32 1803.16c.23-.27-3.29-3.52-9.89-9.18-3.25-2.89-7.35-6.29-12.43-9.81-5.03-3.57-10.58-7.94-17.32-11.86-13.05-8.5-29.54-17.13-48.5-25.2-19.11-7.72-40.77-14.66-64.12-19.36-23.4-4.44-46.09-6.16-66.69-6.21-20.61.33-39.14 2.12-54.43 5.07-7.72 1.09-14.51 3.05-20.52 4.47-6.03 1.35-11.1 2.95-15.2 4.4-8.25 2.76-12.73 4.45-12.62 4.79.32 1.03 18.49-5.33 48.93-10.03 15.2-2.46 33.51-3.84 53.84-3.91 20.31.32 42.64 2.16 65.69 6.53 23 4.63 44.37 11.33 63.31 18.7 18.79 7.71 35.24 15.89 48.39 23.88 26.44 15.81 40.87 28.57 41.56 27.72" fill="#fafaf9"/><path d="m2392.11 92.6211-987.53 228.3669v122.133h-95.47l-97.15 112.18 12.27 11.429 75.08-59.968h155.69l929.06-319.012 2.97-35.109 5.08-60.0199" fill="#ba2c42"/><path d="m1502.77 655.199-82.37 15.242s-195.25 213.559-231.85 216.61c-30.13 2.508-196.234.879-254.073.23-11.032-.129-19.875-9.101-19.875-20.129 0-10.812 8.546-19.691 19.347-20.113l196.231-7.609.93-15.801-196.501-2.609c-20.007-1.532-32.832-33.219 31.215-38.938l164.356-5.84v-10.222l-166.653-23.301c-8.422-1.168-30.574-5.481-30.785-13.977 0 0-10.082-20.883 37.403-26.82 16.293-2.031 160.965 2.758 160.965 2.758l-5.57-13.008-149.774-32.301c-10.911-2.351-18.153-12.723-16.598-23.769 1.582-11.262 11.73-19.301 23.051-18.243l160.041 14.84 157.05-125.437h210.01z" fill="#f8a58d"/><path d="m2886.44 651.121-479.27-94.262-48.62 340.813" fill="#f03d5f"/><path d="m2343.34 638.109-888.34 28.7.14-307.047 589.38-117.051 413.85-66.063c257.21 0 462.95 236.063 423.12 490.161l-1.1-.289z" fill="#f03d5f"/><path d="m2587.9 643.75c0-.23-3.96-.5-11.51-.801-8.16-.23-19.17-.539-33.02-.937-29.36-.532-70.68-1.282-121.46-2.203-102.56-1.5-244.28-3.227-400.81-1.739-156.6 1.539-298.31 7.2-400.7 14.129-51.19 3.422-92.58 6.723-121.12 9.602-13.78 1.41-24.74 2.531-32.87 3.359-7.51.852-11.44 1.422-11.41 1.649.02.25 3.99.152 11.53-.239 8.16-.511 19.14-1.191 32.97-2.058 28.59-2.043 70.01-4.59 121.2-7.391 102.38-5.66 243.96-10.519 400.47-12.082 156.44-1.48 298.13-.519 400.7-.289 50.78-.012 92.12-.02 121.47-.02 13.86-.16 24.87-.281 33.04-.371 7.55-.168 11.52-.359 11.52-.609" fill="#17282f"/><path d="m1455.03 664.039c.12 0 .23-1.859.34-5.457.08-3.902.19-9.184.33-15.91.15-14.293.36-34.68.62-60.531.25-52.532.59-127.161 1-216.993l-1.71 2.133c100.32-21.511 220.57-48.14 350.01-75.312 177.5-37.547 339.04-67.199 456.5-85.34 58.73-9.02 106.37-15.629 139.32-19.981 16.22-2.136 28.94-3.808 37.95-5 4.11-.597 7.36-1.066 9.85-1.429 2.22-.348 3.35-.578 3.34-.66-.01-.098-1.16-.047-3.4.121-2.51.242-5.78.539-9.91.922-9.03.957-21.8 2.296-38.08 4.027-33.03 3.742-80.78 9.812-139.62 18.351-117.68 17.231-279.46 46.329-457.02 83.891-129.49 27.18-249.67 54.109-349.87 76.141l-1.73.379.01 1.75c.35 89.839.64 164.468.85 217 .24 25.851.44 46.238.57 60.531.13 6.726.24 12.008.32 15.91.11 3.598.22 5.457.33 5.457" fill="#17282f"/><path d="m1379.17 1503.79c-.35.05-.11 5.39.64 14.99.61 9.61 1.58 23.51 1.95 40.71.98 34.33-.57 82-9.31 133.71-9.1 51.45-20.62 98.35-38.48 127.5-8.74 14.64-18.88 24.28-26.54 29.9-7.76 5.52-12.74 7.56-12.52 8.05.07.16 1.34-.26 3.72-1.21 2.42-.86 5.76-2.65 9.95-5.17 8.2-5.21 19.12-14.81 28.51-29.62 9.51-14.7 17.58-34.02 23.98-56.03 6.43-21.97 12.18-46.51 16.52-72.57 8.81-52.12 9.78-100.22 7.85-134.71-.85-17.27-2.38-31.18-3.61-40.76-1.37-9.57-2.3-14.83-2.66-14.79" fill="#17282f"/><path d="m2356.11 1773.69c1.43 0 2.59-204.12 2.59-455.84 0-251.82-1.16-455.889-2.59-455.889-1.45 0-2.61 204.069-2.61 455.889 0 251.72 1.16 455.84 2.61 455.84" fill="#17282f"/><path d="m2662.68 748.34c-.01-.969-15.12-.5-39.14-3.469-12.01-1.41-26.17-4.121-41.63-8.109-15.39-4.242-32.03-9.891-48.86-17.391-16.76-7.691-31.99-16.473-45.33-25.223-13.2-8.988-24.59-17.839-33.58-25.929-18.08-16.078-27.69-27.739-28.43-27.098-.29.219 1.93 3.27 6.21 8.609 4.18 5.411 10.91 12.731 19.73 21.2 8.78 8.55 20.1 17.832 33.37 27.179 13.4 9.121 28.84 18.18 45.88 26 17.11 7.641 34.1 13.25 49.81 17.301 15.78 3.789 30.22 6.16 42.44 7.121 12.19 1.028 22.12 1.258 28.95.828 6.83-.308 10.59-.66 10.58-1.019" fill="#17282f"/><path d="m1387.5 705.801c-20.41 21.668-48.08 50.621-76.49 79.019l634 729.11 227.58 180.86c-21.48-77.14-89.48-123.58-147.64-178.63-126.62-119.88-211.65-275.82-302.97-424.37-91.33-148.54-184.77-296.61-334.49-385.989" fill="#ba2c42"/><path d="m1387.49 705.801-76.49 79.008c28.42-28.387 56.09-57.34 76.5-79.008-.01 0-.01 0-.01 0" fill="#ba7562"/><path d="m976.469 1097.06c.172-1.99-35.774-.6-76.719-14.55-20.383-6.98-37.91-15.86-50.57-22.32-12.637-6.53-20.477-10.63-20.871-9.98-.348.58 6.816 5.79 19.082 13.19 12.281 7.33 29.808 16.89 50.683 24.05 20.895 7.11 40.844 9.81 55.172 10.47 14.375.64 23.227-.25 23.223-.86" fill="#17282f"/><path d="m976.469 1097.06c.172-1.99-35.774-.6-76.719-14.55-20.383-6.98-37.91-15.86-50.57-22.32-12.637-6.53-20.477-10.63-20.871-9.98-.348.58 6.816 5.79 19.082 13.19 12.281 7.33 29.808 16.89 50.683 24.05 20.895 7.11 40.844 9.81 55.172 10.47 14.375.64 23.227-.25 23.223-.86" fill="#17282f"/><g fill="#fafaf9"><path d="m2352.29 770.242c-.46-.91-10.82 9.117-34.55 15.906-23.45 7.293-60.35 7.161-102.22-6.41-42.4-12.5-86.37-42.539-140.71-65.117-27.14-10.941-57.94-19.449-90.37-17.269-32.47 1.64-64.25 13.957-94.44 28.988-30.34 15.14-58.56 32.18-87.26 45.519-28.62 13.481-58.18 21.832-87.04 24.582-57.86 5.489-110.49-7.89-149.76-27.089-39.95-18.723-66.68-43.461-83.41-61.262-4.05-4.57-7.67-8.649-10.86-12.258-2.78-3.703-5.18-6.891-7.21-9.602-1.83-2.371-3.32-4.289-4.53-5.851-1.04-1.309-1.62-1.957-1.69-1.91-.08.051.35.793 1.25 2.203 1.1 1.648 2.45 3.668 4.12 6.168 1.93 2.801 4.2 6.109 6.84 9.949 3.11 3.723 6.64 7.941 10.58 12.652 16.39 18.368 43.05 43.829 83.29 63.231 19.82 10.109 43.02 18.297 68.64 23.66 25.6 5.348 53.82 7.68 83.21 4.887 29.37-2.649 59.73-11.137 88.71-24.727 29.06-13.441 57.37-30.504 87.44-45.48 29.93-14.91 60.99-26.922 92.43-28.571 31.38-2.191 61.43 5.938 88.27 16.641 53.73 22 98.24 51.906 141.4 64.18 42.53 13.308 80.19 12.867 103.89 4.84 11.94-3.68 20.48-8.422 25.98-11.93 2.45-1.75 4.43-3.172 6.06-4.32 1.33-1 2-1.543 1.94-1.61"/><path d="m2786.65 1140.06c-.2-.66-6.18 2.95-17.99 3.4-11.73.69-28.88-3.46-47.01-14.39-18.45-10.34-36.29-29.11-61.48-43.26-12.51-6.94-27.71-12.08-43.76-11-16.03.9-31.47 7.25-46.06 14.65-14.67 7.4-28.29 15.66-42.38 21.27-14.03 5.78-28.29 9.56-42.07 11.75-13.79 2.28-27.14 2.76-39.56 2.16-12.43-.47-23.95-2.16-34.29-4.5-20.72-4.58-36.63-11.48-47.2-16.86-10.64-5.35-16.12-9.12-16.41-8.65-.11.15 1.2 1.18 3.78 3 2.58 1.83 6.38 4.56 11.67 7.43 10.39 5.99 26.33 13.54 47.33 18.67 10.47 2.61 22.2 4.56 34.9 5.23 12.67.8 26.35.47 40.5-1.73 14.15-2.13 28.82-5.9 43.29-11.78 14.58-5.74 28.34-14.07 42.8-21.34 14.37-7.31 29.12-13.32 44.01-14.21 14.87-1.07 29.03 3.56 41.16 10.13 24.44 13.35 42.72 31.94 61.93 42.23 18.8 10.8 36.82 14.6 48.97 13.22 6.09-.5 10.63-1.99 13.58-3.16 2.91-1.33 4.37-2.1 4.29-2.26"/><path d="m2346.85 1276.93c-.05-.18-2.4.24-6.8 1.18-2.21.42-4.9 1.16-8.13 1.7-3.35.44-7.09.94-11.24 1.48-16.91 1.94-41.91.91-71.27-7.28-29.36-8.22-62.51-23.63-97.44-43.94-34.92-20.23-72.41-45.1-116.07-63.06-21.77-8.94-44.07-15.73-66.33-18.17-22.2-2.61-44.15-.98-63.99 4.4-19.86 5.34-37.57 13.54-53.78 21.49-16.19 8.02-31.01 15.89-44.84 22.36-27.48 13.35-51.57 19.83-68.58 20.76-8.49.14-15.12.15-19.56-.6-4.47-.46-6.85-.61-6.89-.44-.03.18 2.28.68 6.75 1.48 4.44 1.1 11.13 1.42 19.79 1.58 17.33-.31 42.15-6.4 70.03-19.43 14.04-6.31 29-14.02 45.19-21.82 16.2-7.76 33.75-15.69 53.12-20.74 19.33-5.1 40.55-6.58 62.16-3.97 21.66 2.44 43.49 9.1 64.96 17.91 43.06 17.71 80.4 42.28 115.64 62.41 35.26 20.19 68.97 35.45 98.87 43.33 29.93 7.86 55.43 8.33 72.48 5.75 4.16-.73 7.93-1.39 11.29-1.98 3.24-.7 5.91-1.61 8.1-2.2 4.35-1.28 6.6-2.03 6.54-2.2"/><path d="m2656.55 1584.57c.15-.32-3.66-2.53-10.7-6.21-7.06-3.65-17.32-8.83-30.38-14.55-13.05-5.67-28.93-11.93-47.39-16.4-18.35-4.59-39.63-6.66-61.41-4.18-21.77 2.28-41.93 6.91-60.4 9.4-18.42 2.67-35.22 2.89-49.07.9-28.09-3.78-41.77-16.63-42.23-15.59-.11.14.66.93 2.25 2.33 1.55 1.42 4.08 3.26 7.48 5.41 6.82 4.23 17.69 9.05 31.92 11.48 14.19 2.54 31.52 2.68 50.28.24 18.77-2.29 38.96-6.76 60.29-8.99 42.89-5.1 80.86 8.59 106.87 18.8 13.13 5.24 23.62 9.89 30.92 12.99 7.31 3.11 11.41 4.71 11.57 4.37"/><path d="m1363.54 1418.06c-.23-.65-5.86 3.8-17.7 4.26-11.73.62-28.84-4.22-45.82-16.98-8.67-6.12-17.65-13.7-28.37-20.7-10.66-7.1-23.69-12.44-37.87-15.18-28.58-5.48-60.8-.16-91.69 10.94-30.98 11.18-58.75 25.43-85.29 34.77-13.22 4.77-26.08 8.36-38.33 10.48-12.27 2.02-23.892 2.63-34.439 2.08-21.152-1.07-37.664-6.98-47.91-12.81-10.34-5.8-15.121-10.52-15.476-10.09-.125.13 1.019 1.33 3.332 3.5 2.281 2.21 5.964 5.17 11.125 8.33 10.156 6.51 27 13.19 48.699 14.75 10.816.8 22.749.38 35.359-1.49 12.61-2 25.79-5.52 39.24-10.23 27.01-9.23 54.91-23.39 85.44-34.38 30.35-10.92 61.65-16.14 89.07-11.14 13.64 2.53 26.02 7.42 36.43 14.12 10.49 6.62 19.62 14.04 28.58 20.06 17.63 12.69 35.86 17.33 48.05 15.99 6.11-.49 10.66-2.18 13.5-3.63 2.85-1.45 4.15-2.55 4.07-2.65"/><path d="m1926.89 652.129c.12.133 1.22-.82 3.21-2.75 2.06-1.879 4.7-5.008 7.88-9.238 6.08-8.539 13.55-22.5 16.34-41.422 2.73-18.629.58-42.828-13.29-64.399-13.28-21.539-35.94-38.59-48.66-63.332-6.11-12.386-7.64-26.109-4.98-38.929 2.46-12.84 7.68-24.661 12.98-35.707 10.93-21.852 21.03-43.043 20.65-62.633-.3-19.571-10.11-33.719-18.72-39.887-4.34-3.203-8.36-4.582-11.04-5.293-2.76-.539-4.22-.629-4.24-.469-.21.602 6.04.899 14.04 7.352 7.74 6.269 16.46 20 16.27 38.277-.08 18.442-10 38.633-21.27 60.543-5.48 11.129-10.98 23.238-13.68 36.867-2.94 13.543-1.3 28.883 5.3 42.161 6.62 13.242 16.09 23.96 25.04 33.96 8.98 10.02 17.74 19.489 24.27 29.68 13.36 20.27 15.86 43.281 13.68 61.328-2.23 18.301-8.94 32.071-14.38 40.774-5.62 8.679-9.8 12.758-9.4 13.117"/><path d="m2346.07 213.121c-.12-.141-1.4.981-3.75 3.25-2.24 2.359-5.27 6.258-7.74 12.031-5.31 11.418-5.97 30.907 2.53 51.618 4.13 10.332 10.74 21.019 19.43 30.679 8.5 9.883 18.58 19.383 28.7 29.653 10.1 10.238 20.33 21.437 27.79 34.918 7.49 13.441 11.72 29.14 13.38 45.5 3.31 32.929-2.61 64.55-4.28 93.601-2.11 28.961.41 56.149 9.69 76.598 8.89 20.551 22.24 33.91 32.88 40.261 5.3 3.25 9.8 5.071 12.89 6.079 3.14.91 4.79 1.3 4.84 1.132.22-.57-6.61-2.062-16.62-8.91-9.99-6.672-22.42-19.941-30.6-39.992-8.52-19.937-10.62-46.187-8.29-74.848 1.87-28.671 8.05-60.5 4.68-94.461-1.71-16.859-6.15-33.32-14.11-47.441-7.93-14.148-18.57-25.578-28.84-35.82-20.73-20.258-40.16-38.028-48.14-58.36-8.61-19.808-8.54-38.347-4.04-49.461 4.26-11.328 10.2-15.578 9.6-16.027"/><path d="m2397.44 80.4609s-3.45-3.0117-11.13-7.039c-7.6-4.0703-19.8-8.8203-36.29-10.3633-16.4-1.707-36.91.0508-59.37 6.6719-22.61 6.3398-46.59 18.5-71.87 33.2105-25.41 14.438-52.7 31.688-85.1 42.571-32.34 10.867-69.81 11.82-107.32 3.66-37.68-7.84-75.33-23.34-114.15-39.481-38.84-16.0308-79.23-33.6715-123.51-42.6324-22.05-4.5781-44.62-5.9688-66.57-3.75-22 2.082-43.06 8.9609-62.12 18.4023-38.27 19.1411-68.8 46.8401-99.98 69.3791-15.58 11.32-31.19 21.851-47.55 29.73-4.09 1.961-8.16 3.899-12.19 5.828-4.1 1.762-8.35 3.102-12.46 4.661-8.17 3.351-16.66 5.23-24.9 7.433-33.2 8.11-65.64 7.899-94.33 3.817-28.75-4.25-54.11-12.36-74.94-22.36-5.3-2.32-10.07-5.258-14.85-7.707-4.82-2.402-9.22-5.113-13.31-7.922-4.12-2.73-8.17-5.218-11.86-7.82-3.56-2.781-6.94-5.441-10.15-7.969-6.62-4.789-11.58-10.101-16.22-14.32-4.73-4.16-8.22-8.18-11.04-11.43-2.73-3.031-4.89-5.429-6.55-7.269-1.5-1.621-2.31-2.43-2.38-2.383-.07.062.59.98 1.96 2.711 1.57 1.93 3.61 4.449 6.18 7.64 2.71 3.372 6.09 7.512 10.74 11.821 4.56 4.371 9.45 9.847 16.03 14.808 3.19 2.59 6.56 5.34 10.09 8.211 3.69 2.68 7.72 5.262 11.85 8.09 4.1 2.899 8.5 5.699 13.34 8.192 4.79 2.539 9.59 5.558 14.91 7.98 20.96 10.359 46.54 18.828 75.66 23.379 29.06 4.359 62 4.809 95.85-3.27 8.4-2.191 17.06-4.07 25.41-7.429 4.2-1.571 8.53-2.922 12.73-4.703 4.13-1.95 8.29-3.911 12.47-5.879 16.73-7.981 32.6-18.621 48.33-29.961 31.47-22.617 61.98-50.067 99.42-68.6799 18.64-9.1993 39.01-15.8282 60.41-17.8203 21.33-2.1485 43.34-.7969 65.01 3.6914 43.5 8.8007 83.7 26.25 122.56 42.2498 38.87 16.07 76.83 31.621 115.13 39.461 38.11 8.18 76.63 7.059 109.67-4.269 33.02-11.293 60.32-28.872 85.58-43.473 25.13-14.8985 48.63-27.0899 70.86-33.6173 22.07-6.7812 42.19-8.8008 58.36-7.4297 16.22 1.2071 28.33 5.5469 35.99 9.2774 7.75 3.6797 11.42 6.4101 11.6 6.1015"/></g><path d="m1841.09 1748.53c111.59-5.51 207.59 78.17 217.38 189.46 5.81 66.03 10.39 122.4 10.39 122.4s170.39 4.3 194.1 171.02c23.73 166.72 44.52 553.93 44.52 553.93-182.53 108.15-409.29 109.05-592.67 2.34l-27.21-15.84-43.87-804.32c-6.28-115.08 82.25-213.32 197.36-218.99" fill="#f8a58d"/><path d="m2092.43 2346.65c.07 1.82 14.67 2.85 38.21 3.06 6.1-.13 11 .62 11.85 3.8 1.56 3.5.06 10.22-2.07 17.78-3.94 15.98-7.94 32.15-12.13 49.1-16.48 69.84-26.98 127.12-23.42 127.95 3.53.84 19.77-55.08 36.27-124.92 3.83-17.03 7.5-33.28 11.11-49.33 1.31-7.25 4.43-15.91.05-25.43-2.31-4.76-7.51-7.74-11.61-8.26-4.14-.69-7.54-.25-10.44-.01-23.44 2.18-37.9 4.44-37.82 6.26" fill="#17282f"/><path d="m2069.45 2062.76s-106.65 5.11-209.68 90.11c0 0 35.87-126.85 204.45-133.42z" fill="#f68260"/><path d="m2305.47 2742.89s-105.04-43.89-234.51 29.92c-84.96 48.42-185.62 75.34-209.05 59.02-23.42-16.33-33.12-106.09-121.12-127.6 0 0-3.54-172.09-71.68-162.18-68.14 9.9-10.66 273.56-10.66 273.56l172.04 72.58 184.73 24.45 170.93-33.79 131.28-43.85z" fill="#17282f"/><path d="m1685.74 2596.2c-2.69 1.6-110.35 48.82-121.5-65.81-11.17-114.64 106.23-102.2 106.75-98.94.52 3.27 14.75 164.75 14.75 164.75" fill="#f8a58d"/><path d="m1640.2 2478.3c-.47.41-2.14-1.21-5.66-2.43-3.44-1.18-9.2-1.68-14.96 1.15-11.68 5.62-20 25.84-18.55 46.56.73 10.46 3.88 20.18 8.38 28.05 4.31 8.05 10.31 13.37 16.51 13.87 6.2.81 10.17-3.26 11.26-6.63 1.22-3.35.27-5.57.86-5.82.29-.33 2.64 1.68 2.18 6.5-.25 2.32-1.33 5.16-3.81 7.62-2.53 2.51-6.47 4.04-10.76 4-8.9.25-17.65-7.11-22.59-15.75-5.43-8.62-9.22-19.53-10.03-31.27-1.52-23.17 8.2-45.94 24.3-52.35 7.86-2.88 14.83-1.11 18.57 1.26 3.82 2.48 4.67 4.99 4.3 5.24" fill="#f68260"/><path d="m1816.92 2813.42c-23.43-24.96-47.22-50.22-76.3-68.29s-64.55-28.43-97.92-20.74c-33.36 7.69-62.84 36.57-64.21 70.78-1.36 34.2 32.07 67.57 65.51 60.25-22.69-.41-41.67 25.3-34.59 46.86 7.08 21.58 37.6 31.03 55.64 17.25-29.05 5.44-32.32 51.55-9.17 69.92 23.15 18.38 57.06 14.36 84.44 3.25 27.39-11.09 52.54-28.31 81.44-34.53 45.3-9.74 91.81 9.12 131.88 32.4 40.06 23.28 78.16 51.76 122.83 64.1 54.83 15.16 114.06 4.08 166.52-17.93 43.55-18.26 84.77-44.72 113.09-82.51 28.33-37.78 42.3-88 29.69-133.51-12.6-45.5-54.94-83.28-102.15-83.46 0 0-106.16-10.7-192.52 53.42-86.37 64.11-268.49 55.63-268.49 55.63z" fill="#17282f"/><path d="m1657.18 2946.89c-.23-.36 2.05-2.17 6.6-5.29 4.49-3.24 11.47-7.44 20.62-12.62 18.35-10.15 46.23-22.96 82.65-32.86 36.35-9.82 81.54-16.11 131.53-12.51 50.23 3.3 102.92 19.49 157.78 32.91 54.69 13.47 109.05 20.16 155.97 8.62 46.87-10.83 83.86-39.24 100.14-71.35 16.5-32.43 14.54-64.1 8.66-83.2-5.97-19.61-14.31-28.29-13.24-29.02.33-.27 2.38 1.79 6.03 6.04 3.21 4.5 8.09 11.35 11.73 21.46 7.58 19.62 11.28 53.17-5.41 88.58-16.58 35.31-55.84 66.43-105.19 78.46-49.61 12.83-106.21 5.95-161.55-7.67-55.56-13.62-107.24-29.79-155.82-33.57-48.51-4.1-92.65 1.11-128.5 9.66-72.1 17.53-110.87 44.8-112 42.36" fill="#33535f"/><path d="m1605.72 2769.74c-1.29-.66 2.44-11.87 14.82-26.09 12.1-14.09 34.1-30.44 62.7-36.65 28.62-6.17 55.41-.35 72.26 7.48 17.14 7.83 25.17 16.5 24.26 17.63-1.08 1.59-10.66-4.29-27.35-9.53-16.51-5.31-40.9-9.12-66.58-3.59-25.66 5.57-46.29 19.11-59.14 30.77-13.03 11.66-19.34 20.97-20.97 19.98" fill="#33535f"/><path d="m1641.46 2826.39c-2.93-1.38 5.86-22.21 28.07-37.45 22.11-15.41 44.7-16.28 44.95-13.06.67 3.49-18.43 9.4-37.97 23.15-19.75 13.43-32.02 29.22-35.05 27.36" fill="#33535f"/><path d="m2361.79 2666.45c1.52-.36 4.76 5.28 5.61 15.56.9 10.11-1.35 25-10.14 38.52-8.8 13.51-21.5 21.6-31.11 24.87-9.74 3.38-16.22 2.71-16.49 1.17-.98-3.31 22.58-9.87 37.33-32.73 14.93-22.73 11.37-46.94 14.8-47.39" fill="#17282f"/><path d="m2421.2 2830.83c-3.38 1.42-16.03-28.96-46-53.97-29.5-25.57-61.51-33.18-60.65-36.75-.14-3.19 36.09-.55 68.6 27.41 32.8 27.59 41.22 62.94 38.05 63.31" fill="#33535f"/><path d="m2247.41 2531.27c-1.29-13.57-13.84-23.66-28.04-22.58-14.17 1.08-24.64 12.93-23.36 26.5 1.29 13.57 13.84 23.69 28.01 22.61 14.2-1.08 24.67-12.95 23.39-26.53" fill="#17282f"/><path d="m2267.72 2533.54c-3.62-2.93-21.12 13.94-48.66 17.47-27.46 3.91-49.51-7.62-52.05-3.86-1.27 1.69 2.74 7.28 12.38 12.54 9.48 5.25 25.07 9.52 42.21 7.21 17.12-2.33 30.73-10.52 38.17-18.07 7.63-7.6 9.7-14.01 7.95-15.29" fill="#17282f"/><path d="m1996.92 2566.07c-1.29-13.57-13.84-23.67-28.04-22.59-14.17 1.08-24.64 12.94-23.36 26.5 1.29 13.57 13.85 23.7 28.02 22.62 14.19-1.09 24.67-12.96 23.38-26.53" fill="#17282f"/><path d="m2014.84 2566.79c-3.62-2.92-21.15 13.95-48.66 17.47-27.46 3.91-49.51-7.61-52.06-3.85-1.27 1.68 2.72 7.28 12.38 12.53 9.49 5.25 25.08 9.53 42.2 7.22 17.14-2.33 30.74-10.53 38.19-18.07 7.6-7.6 9.7-14.01 7.95-15.3" fill="#17282f"/><path d="m2004.22 2642.51c-5.43-4.85-26.06 10.19-53.92 12.81-27.8 3.31-51.13-7.06-55.42-1.18-2 2.81 1.71 9.92 11.95 16.71 10.04 6.76 27.08 12.41 46.22 10.37s34.61-11.14 43.01-19.86c8.58-8.79 10.71-16.53 8.16-18.85" fill="#17282f"/><path d="m2265.94 2596.87c1.2-3.26-3.53-8.73-13.55-13.07-9.93-4.35-25.22-6.93-41.68-4.36-16.47 2.6-30.23 9.75-38.33 16.93-8.21 7.21-11.04 13.87-8.9 16.6 4.78 5.65 25.25-4.08 51.27-7.81 25.9-4.43 48.38-1.45 51.19-8.29" fill="#17282f"/><path d="m2071.33 2300.85c2.87-.18 4.89-5.36 4.51-11.57s-3-11.11-5.88-10.94c-2.87.18-4.89 5.36-4.52 11.57.38 6.22 3.02 11.11 5.89 10.94" fill="#17282f"/><path d="m1665.34 2387.85c.27-.09-.15-2.67-2.49-6.72-2.32-4.01-6.94-9.39-14.54-13.23-7.41-3.86-18.4-5.81-29.18-1.73-10.63 3.84-20.74 12.96-25.06 25.53-4.21 12.61-1.88 25.83 3.54 35.6 5.42 10 14.03 16.3 21.65 19.61 7.7 3.36 14.55 4.1 19.14 4.03 4.63-.09 7.09-.8 7.06-1.11.09-1.02-10.49.72-24.63-6.25-6.89-3.49-14.38-9.49-18.99-18.54-4.65-8.89-6.51-20.71-2.84-31.67 3.73-10.9 12.56-19.12 21.83-22.71 9.35-3.8 18.94-2.52 25.92.57 14.42 6.48 17.8 17.31 18.59 16.62" fill="#33535f"/><path d="m1776.02 1702.99s55.79 78.82 90.84 123.09c42.47 53.65 67.8 99.89 67.8 124.95v132.78s52.88 12.53 60.43-47.6c7.56-60.13 0-75.16 0-75.16s222.05 149.54 237.11 138.69c26.45-19.06-23.72-58.99-23.72-58.99l-135.32-122.3 77.05 24.4c18.74 5.93 38.8-4.15 45.12-22.68 5.18-15.23-.44-32.04-13.77-41.13l-45.61-39.52 22.95 9.22c17 6.83 36.42-.46 44.64-16.76 6.6-13.09 4.31-28.89-5.73-39.59l-41.56-44.3 19.48 10.36c12.54 6.68 28.16 1.73 34.52-10.95 5.32-10.62 2.44-23.5-6.9-30.88l-248.55-196.53z" fill="#f8a58d"/><path d="m1954.8 1520.09s-1.05.91-3.09 2.91c-2.19 2.18-5.19 5.17-9.1 9.06-8.17 8.22-20.02 20.14-35.32 35.53-31.02 31.45-76.01 77.03-132.46 134.24l-.97.98.81 1.14c16.25 23.02 33.94 47.7 53.11 73.79 9.6 13.03 19.56 26.41 30.03 40.01 10.58 13.55 21.42 27.3 31.65 42.13 10.26 14.75 20.21 30.3 28.75 47 8.26 16.8 16.11 34.54 14.18 54.29-.04 39.41-.09 80.37-.14 122.64v2l1.85.35c13.5 2.54 27.97.96 40.15-6.61 6-3.87 10.72-9.37 14.56-15.34 3.34-6.24 5.93-12.89 7.29-19.79 2.69-13.83 3.63-27.43 4.5-41.51.36-7 .49-14.05.18-21.17-.45-7.23-.62-14.03-3.42-21.82l-3.68 3.23c34.28 22.99 69.83 46.26 106.55 69.47 18.36 11.59 37.02 23.16 56.09 34.46 19.16 11.17 38.35 22.61 59.28 31.76 2.77 1.14 5.56 2.25 8.55 3.1 1.52.41 3.05.79 4.84.92.86.08 1.9.04 3.03-.22 1.62-.55 2.21-1.23 2.73-1.73 5.44-3.62 8.46-11.16 7.54-17.57-1.91-12.99-10.11-22.45-17.82-31.13-8.06-8.68-17.28-15.79-25.54-23.58-8.49-7.67-16.93-15.31-25.34-22.89-33.64-30.37-66.59-60.14-98.74-89.15l-2.45 4.27c15.18 4.8 30.22 9.55 45.11 14.25 7.44 2.36 14.86 4.69 22.22 7.02 3.73 1.15 7.25 2.36 11.12 3.44 3.95 1.14 8.08 1.58 12.15 1.35 16.49-.51 31.33-12.77 35.3-28.31 4.41-15.51-2.36-32.9-15.4-41.54l.22.17c-15.52-13.41-30.73-26.56-45.66-39.46l-2.37 3.87c7.51 3.01 14.96 6 22.34 8.95 7.75 3.2 16.62 3.82 24.61 1.59 16.23-4.29 27.92-20.15 27.39-36.29-.09-8-2.84-15.83-7.61-22.04-5.02-5.97-10.05-10.85-14.99-16.25-9.9-10.52-19.61-20.82-29.1-30.91l-2.42 3.17c7.04 3.71 14 7.37 20.88 10.98 7.58 3.6 16.65 3.25 23.85-.5 7.33-3.64 12.51-10.75 14.15-18.48 1.64-7.76-.36-16.04-5.13-22.07-2.38-3.11-5.51-5.31-8.21-7.46-2.78-2.19-5.54-4.37-8.29-6.53-5.49-4.31-10.9-8.57-16.23-12.76-10.66-8.37-20.99-16.48-30.98-24.33-39.92-31.27-74.43-58.31-102.75-80.49-28.08-21.91-50.01-39.02-65.09-50.77-7.32-5.66-12.97-10.02-16.94-13.1-3.82-2.92-5.77-4.27-5.77-4.27s1.97 1.75 5.8 4.88c3.96 3.2 9.61 7.76 16.91 13.67 14.98 12.01 36.77 29.47 64.66 51.82 28.01 22.36 62.14 49.59 101.61 81.1 9.89 7.85 20.09 15.97 30.62 24.36 5.27 4.19 10.61 8.44 16.04 12.76 2.72 2.15 5.45 4.32 8.21 6.51 2.8 2.26 5.53 4.22 7.52 6.86 4.1 5.23 5.78 12.38 4.34 19.04-1.44 6.64-5.92 12.74-12.22 15.82-6.21 3.19-13.97 3.47-20.44.36-6.8-3.61-13.69-7.27-20.65-10.97l-10.69-5.68 8.27 8.85c9.45 10.11 19.12 20.46 28.98 31.01 4.81 5.27 10.23 10.65 14.66 15.97 4.2 5.51 6.6 12.44 6.66 19.5.42 14.24-9.92 28.17-24.23 31.92-7.09 1.93-14.75 1.4-21.72-1.49-7.37-2.97-14.81-5.98-22.32-9l-12.76-5.15 10.39 9.03c14.9 12.93 30.08 26.13 45.56 39.57l.12.1.1.07c11.41 7.59 17.28 22.81 13.42 36.34-3.5 13.57-16.48 24.25-30.87 24.67-7.14.65-14.02-2.35-21.55-4.6-7.36-2.34-14.76-4.69-22.2-7.05-14.89-4.72-29.92-9.5-45.1-14.31l-11.07-3.52 8.61 7.8c32.15 29.08 65.12 58.89 98.75 89.31 8.42 7.61 16.86 15.26 25.35 22.93 8.39 7.89 17.44 14.91 25.11 23.19 7.46 8.21 15.04 17.69 16.43 28.08.58 5.06-1.24 9.99-5.63 13.04-.61 1.49-3.22.65-5.91.04-2.64-.73-5.31-1.79-7.96-2.88-20.3-8.87-39.59-20.32-58.63-31.43-19.01-11.26-37.64-22.8-55.99-34.36-36.67-23.16-72.22-46.39-106.47-69.3l-6.36-4.26 2.69 7.49c1.98 5.56 2.59 13.07 2.92 19.78.3 6.9.18 13.83-.16 20.72-.81 13.68-1.82 27.71-4.35 40.69-1.26 6.53-3.67 12.65-6.68 18.34-3.48 5.38-7.65 10.29-12.97 13.73-10.65 6.76-24.32 8.29-36.39 6.03l1.85 2.34c-.05-42.27-.09-83.23-.14-122.64-.06-4.96.15-9.7-.3-14.94-.65-5.02-1.72-9.93-3.25-14.6-2.96-9.41-6.97-18.23-11.27-26.73-8.73-16.96-18.83-32.59-29.21-47.42-10.33-14.86-21.37-28.75-31.92-42.17-10.5-13.53-20.51-26.85-30.15-39.82-19.27-25.96-37.08-50.56-53.45-73.45l-.17 2.11c55.63-57.46 99.97-103.24 130.54-134.82 15.14-15.74 26.88-27.94 34.97-36.36 3.88-4.08 6.87-7.22 9.03-9.5 2.03-2.16 3.06-3.38 3.06-3.38" fill="#f68260"/><path d="m1954.8 1520.09-681.36-899.57c-103.42-136.54-289.823-186.5-444.67-112.379-113.211 54.191-196.235 167.968-126.758 402.218l652.698 446.591 396.73 382.89z" fill="#f03d5f"/><path d="m828.77 508.141s2.539-1.192 7.347-3.731c4.938-2.621 12.039-6.379 21.317-11.301 19.484-8.07 48.843-20.16 89.07-23.879 20.004-1.531 42.488-2.25 66.736 1.219 12.21 1.012 24.63 4.063 37.65 6.633 6.46 1.477 12.9 3.59 19.54 5.398 6.68 1.719 13.31 4.012 19.98 6.571 26.87 9.551 54.72 22.609 81.89 40.219 27.25 17.441 54.05 39.218 76.81 67.101 46.51 55.027 94.57 117.84 146.51 184.859 51.83 67.149 106.56 139.418 164.15 215.442 114.97 152.228 240.67 320.128 372.02 496.788 6.99 9.43 13.97 18.83 20.92 28.19l.18-3.33c-69.71 75.37-137.76 148.92-203.32 219.79l3.49-.23c-138.9-114.65-267.44-224.12-383.98-321.59-116.43-97.61-220.83-183.29-309.06-253.12-88.196-69.88-159.934-124.26-209.883-160.76-24.832-18.461-44.469-32.101-57.574-41.57-6.516-4.61-11.5-8.129-14.993-10.598-3.386-2.363-5.179-3.48-5.179-3.48s1.613 1.367 4.914 3.859c3.425 2.551 8.324 6.199 14.726 10.969 12.93 9.699 32.387 23.57 57.043 42.24 49.606 36.95 121.008 91.71 208.896 161.92 87.92 70.16 192.04 156.1 308.25 253.94 116.34 97.7 244.74 207.33 383.6 322.11l1.86 1.53 1.63-1.76c65.58-70.84 133.66-144.38 203.4-219.71l1.47-1.58-1.29-1.74c-6.95-9.36-13.93-18.76-20.92-28.18-131.36-176.68-257.17-344.5-372.37-496.59-57.71-75.95-112.57-148.122-164.56-215.168-52.12-66.954-100.31-129.59-147.14-184.633-23.07-28.067-50.29-50.039-77.81-67.489-27.48-17.648-55.58-30.679-82.7-40.179-6.73-2.551-13.42-4.801-20.17-6.5-6.7-1.801-13.19-3.891-19.71-5.34-13.13-2.531-25.66-5.52-37.97-6.481-24.45-3.339-47.106-2.468-67.239-.761-40.481 4.062-69.906 16.531-89.317 24.941-9.379 5.012-16.379 9.129-21.136 11.789-4.731 2.699-7.078 4.192-7.078 4.192" fill="#17282f"/><path d="m1345.37 742.48c-.4-.582-7.68 6.418-23.81 13.661-15.98 7.41-41.81 12.55-73.27 9.238-15.71-1.539-32.74-5.09-50.51-10.539-17.78-5.379-36.29-12.981-55.86-20.699-19.58-7.75-40.27-15.871-62.6-21.879-22.26-5.942-46.47-9.492-71.11-6.922-24.612 2.551-47.601 10.262-68.831 19.07-21.293 8.828-41.035 18.871-60.149 27.539-37.898 17.641-74.753 29.11-106.367 27.321-31.601-1.418-55.55-13.571-68.761-24.981-13.508-11.469-17.571-20.93-18.164-20.48-.157.089 1 2.273 3.367 6.363 2.675 3.859 6.675 9.687 13.461 15.648 13.113 12.149 37.472 25.2 69.898 27.121 32.531 2.321 70.305-9.109 108.539-26.621 19.289-8.609 39.039-18.531 60.121-27.191 21.028-8.668 43.567-16.149 67.416-18.617 23.83-2.481 47.36.91 69.28 6.679 21.96 5.829 42.54 13.797 62.14 21.411 19.62 7.597 38.25 15.078 56.38 20.378 18.07 5.34 35.4 8.739 51.41 10.059 32.05 2.91 58.43-2.93 74.45-11.059 16.19-7.96 22.97-15.5 22.97-15.5" fill="#fafaf9"/><path d="m1586.16 1044.12c-.76.18 4.04 6.05 2.6 17.83-1.51 11.28-10.74 28.03-30.07 36.59-9.53 4.44-20.82 7.28-33.1 10.09-12.23 2.79-25.7 6.08-38.69 12.41-26.26 12.2-50.45 33.28-72.9 57.12-22.48 23.92-42.52 47.8-63.88 66.14-21.13 18.55-43.61 31.02-64.07 36.6-20.38 5.82-37.96 5.59-49.56 3.38-11.69-2.12-17.77-4.99-17.96-4.47-.07.17 1.4.92 4.31 2.23 2.9 1.27 7.33 2.95 13.26 4.22 11.73 2.89 29.86 3.72 50.93-1.81 21.12-5.25 44.55-17.82 66.21-36.51 21.92-18.48 42.23-42.47 64.54-66.2 22.27-23.66 45.87-44.32 71.17-56.36 25.01-12.4 51.61-13.34 71.32-23.52 20.3-9.57 29.54-27.62 30.5-39.68.48-6.18-.74-10.97-2.09-13.88-1.36-2.92-2.42-4.25-2.52-4.18" fill="#fafaf9"/><path d="m3499.81 3413.35-29.8-1.98-58.98-94.91 3.95-59.46s-45.85-5.89-45.61 72.33c.25 78.21-4.3 58-4.3 58s-97.78-6.12-106.47 1.83c-6.32 5.78-15.44 102.72-19.96 155.31-2.28 26.48 12.34 52.22 36.59 60.12 3.44 1.13 6.94 1.89 10.42 2.12 24.38 1.62 150.28-9.93 150.28-9.93l51.46 3.43z" fill="#33535f"/><path d="m3586.17 3402.7-31.87 202.51-51.01-3.39 13.27-199.63z" fill="#33535f"/><path d="m2802.13 3231.4c.05.17 1.52-.18 4.29-1.03 1.41-.37 3.08-1 4.99-1.93 1.94-.84 4.16-1.89 6.48-3.39 9.44-5.49 22.03-16.84 29.67-35.38 3.7-9.2 6.16-20.16 5.38-31.98-.87-11.75-5.03-24.31-13.2-34.86-7.92-10.65-19.35-19.56-32.76-24.9-13.33-5.54-29.03-7.16-44.08-3.38-14.95 4.15-27.8 13.3-36.66 24.7-9.03 11.27-14.57 24.66-16.19 37.84-1.9 13.21.68 26.19 5.73 36.84 5.16 10.66 12.71 18.97 20.47 25.15 15.8 12.35 32.37 15.98 43.27 16.11 2.77.16 5.21-.03 7.32-.26 2.12-.13 3.89-.41 5.29-.79 2.82-.63 4.27-1.04 4.23-1.22-.09-.57-6.02 1.01-16.73.24-10.55-.72-26.3-4.82-41.06-16.95-7.26-6.05-14.23-14.08-18.88-24.13-4.54-10.03-6.79-22.03-4.88-34.35 3.2-24.32 21.53-50.5 49.42-58.15 28.03-7.11 56.89 6.59 71.68 26.16 7.75 9.77 11.72 21.31 12.73 32.27.91 11.05-1.19 21.46-4.51 30.31-6.84 17.84-18.51 29.18-27.33 35.02-8.93 5.96-14.87 7.52-14.67 8.06" fill="#17282f"/><path d="m2593.99 3053.29c.03.22 3.98-.22 10.12-3.69 6.05-3.39 14.15-10.53 19.11-22.33 2.41-5.86 4.02-12.86 3.55-20.45-.52-7.54-3.17-15.64-8.41-22.42-10.02-13.55-29.57-23.14-49.31-18.2-19.63 5.45-31.89 23.45-33.92 40.19-1.2 8.48.5 16.83 3.77 23.64 3.34 6.83 8.19 12.12 13.18 16.03 10.14 7.81 20.72 10.02 27.65 9.99 7.05-.03 10.7-1.6 10.62-1.8-.08-.49-3.84.37-10.51-.23-6.58-.56-16.34-3.23-25.44-10.83-9.03-7.3-16.99-20.73-14.51-36.16 2.01-14.99 13.39-31.13 30.48-35.8 17.16-4.37 35.02 4.04 44.17 16.07 9.78 12.2 9.49 27.8 5.25 38.62-4.16 11.1-11.33 18.24-16.77 21.98-5.51 3.81-9.2 4.92-9.03 5.39" fill="#17282f"/><path d="m2897.05 3536.91s.32 2.84 1.18 8.34c.91 5.63 2.23 13.77 3.96 24.4.9 5.37 1.9 11.37 2.99 17.98 1.41 6.55 3.6 13.57 5.62 21.25 2.11 7.68 4.38 15.93 6.8 24.76 1.06 4.47 2.66 8.91 4.51 13.43 1.76 4.55 3.57 9.23 5.43 14.05 13.65 38.99 37.81 84.16 73.23 130.93 35.63 46.51 84.81 93.75 148.73 131.21 8.01 4.62 16.13 9.29 24.33 14.01 8.47 4.23 17.31 7.97 26.09 12.04 8.91 3.76 17.52 8.6 26.97 11.59 9.36 3.21 18.83 6.44 28.39 9.7 4.78 1.6 9.56 3.34 14.43 4.85 4.96 1.17 9.95 2.34 14.97 3.52 10.03 2.36 20.17 4.74 30.38 7.15 10.28 2.09 20.89 2.97 31.47 4.53 10.62 1.11 21.25 3.53 32.16 3.35 21.76.49 43.92 2.3 66.34-.25 11.2-.94 22.58-1.2 33.89-2.73 11.27-1.95 22.62-3.9 34.04-5.88 5.7-1.08 11.51-1.74 17.16-3.19 5.63-1.57 11.27-3.14 16.94-4.72 11.29-3.29 22.85-6.05 34.14-9.84 22.11-8.95 45.23-16.45 66.61-28.55 5.45-2.78 10.92-5.57 16.41-8.37 2.73-1.42 5.53-2.74 8.21-4.26l7.82-5c10.44-6.69 20.94-13.41 31.5-20.17 10.23-7.25 19.87-15.41 29.92-23.15 4.9-4.02 10.2-7.6 14.79-12.03l13.87-13.26c19.29-16.99 35.53-37.27 52.69-57.01 7.57-10.67 15.18-21.39 22.82-32.17l5.74-8.09 5-8.59 9.93-17.3 9.98-17.38 8.37-18.29 8.33-18.42 4.18-9.23c1.2-3.16 2.2-6.4 3.33-9.6 4.36-12.83 8.75-25.72 13.14-38.65 3.13-13.3 6.26-26.66 9.41-40.06 10.58-54.04 12.95-110.36 6.85-166.62-7.57-56.11-23.38-110.24-46.61-160.17-6.27-12.27-12.52-24.48-18.74-36.66-7.38-11.5-14.74-22.96-22.05-34.38l-5.54-8.51-6.27-7.96-12.51-15.88-12.52-15.77-13.85-14.48-13.8-14.41-6.92-7.15-7.51-6.47c-10-8.63-19.96-17.22-29.87-25.76-21.41-15.06-42.04-30.85-64.85-42.71l-16.65-9.54c-5.51-3.21-11.53-5.41-17.24-8.15-11.61-5.09-22.95-10.7-34.61-15.29-11.88-4.02-23.69-8.03-35.43-12.02l-8.79-2.98c-2.98-.83-6-1.44-8.99-2.17-6.01-1.39-11.99-2.79-17.95-4.18-23.66-6.61-47.9-8.35-71.52-11.73-11.87-.97-23.76-.88-35.51-1.36-5.88-.17-11.74-.34-17.58-.51-5.84-.05-11.64.7-17.42 1.01-11.58.83-23.06 1.66-34.47 2.48-11.34 1.23-22.45 3.7-33.55 5.47-22.38 2.91-43.47 9.99-64.46 15.69-10.65 2.45-20.38 7.35-30.43 10.98-9.9 4.06-19.97 7.45-29.46 11.95-9.34 4.79-18.61 9.53-27.78 14.23-4.58 2.35-9.15 4.68-13.69 7.01-4.31 2.74-8.59 5.47-12.84 8.18-8.5 5.46-16.92 10.87-25.24 16.23-8.44 5.18-15.64 11.93-23.4 17.73-7.54 6.06-15.22 11.81-22.43 17.94-6.82 6.56-13.58 13.04-20.26 19.45-53.05 51.72-89.44 109.37-112.86 163.08-23.16 53.9-35.77 103.55-39.66 144.66-.66 5.12-1.29 10.1-1.91 14.94-.71 4.83-1.2 9.52-1.14 14.12-.23 9.15-.46 17.7-.66 25.66-.12 7.94-.56 15.29-.35 21.98.51 6.68.98 12.74 1.41 18.17.87 10.73 1.54 18.94 2 24.64.48 5.54.86 8.36.86 8.36s-.03-2.86-.33-8.42c-.34-5.69-.84-13.91-1.48-24.64-.35-5.42-.73-11.47-1.16-18.14-.12-6.68.41-14 .6-21.92.27-7.93.58-16.46.9-25.57-.02-4.57.51-9.25 1.26-14.06.65-4.81 1.32-9.77 2.01-14.86 4.18-40.92 17.03-90.26 40.3-143.74 23.55-53.3 59.94-110.44 112.78-161.62 6.65-6.34 13.38-12.76 20.18-19.25 7.16-6.07 14.81-11.75 22.33-17.75 7.7-5.72 14.86-12.41 23.26-17.53 8.27-5.29 16.64-10.64 25.09-16.03 4.22-2.69 8.48-5.38 12.76-8.09 4.51-2.29 9.04-4.6 13.6-6.92 9.11-4.64 18.31-9.32 27.59-14.04 9.42-4.45 19.43-7.79 29.25-11.79 9.97-3.58 19.63-8.42 30.19-10.82 20.84-5.6 41.75-12.59 63.96-15.43 11.02-1.73 22.03-4.17 33.28-5.37 11.3-.78 22.7-1.58 34.16-2.39 5.74-.29 11.5-1.03 17.28-.98 5.79.18 11.6.37 17.43.55 11.64.5 23.42.42 35.18 1.4 23.4 3.4 47.42 5.13 70.84 11.73 5.91 1.38 11.84 2.77 17.79 4.16 2.96.73 5.95 1.33 8.9 2.16l8.7 2.97c11.64 3.96 23.32 7.94 35.09 11.95 11.55 4.55 22.77 10.12 34.26 15.18 5.66 2.72 11.61 4.9 17.07 8.08l16.47 9.47c22.6 11.77 43.01 27.45 64.2 42.36 9.82 8.47 19.67 16.99 29.57 25.54l7.44 6.42 6.84 7.08 13.65 14.28 13.72 14.34 12.38 15.62 12.38 15.73 6.21 7.89 5.47 8.43c7.25 11.31 14.51 22.66 21.82 34.05 6.15 12.05 12.33 24.15 18.53 36.29 22.99 49.45 38.62 103.04 46.13 158.59 6.04 55.7 3.7 111.46-6.76 164.96-3.11 13.27-6.2 26.49-9.29 39.66-4.36 12.81-8.69 25.57-13.01 38.28-1.1 3.17-2.1 6.37-3.29 9.5l-4.13 9.14-8.24 18.24-8.27 18.13-9.88 17.21-9.82 17.14-4.94 8.51-5.68 8.01c-7.55 10.67-15.08 21.3-22.56 31.88-17 19.56-33.05 39.67-52.15 56.51l-13.72 13.14c-4.54 4.41-9.8 7.95-14.63 11.95-9.95 7.66-19.5 15.76-29.62 22.95-10.45 6.72-20.85 13.39-31.18 20.02l-7.74 4.97c-2.66 1.51-5.43 2.82-8.13 4.23-5.43 2.79-10.85 5.55-16.25 8.31-21.16 12.03-44.05 19.48-65.95 28.39-11.19 3.77-22.64 6.52-33.83 9.8-5.61 1.58-11.2 3.14-16.77 4.71-5.61 1.44-11.37 2.11-17.01 3.19-11.32 1.98-22.57 3.94-33.74 5.89-11.21 1.54-22.49 1.81-33.59 2.77-22.24 2.58-44.2.81-65.78.38-10.83.21-21.37-2.17-31.92-3.26-10.48-1.52-21-2.36-31.21-4.41-10.14-2.36-20.2-4.7-30.15-7.02-4.98-1.15-9.93-2.3-14.87-3.45-4.83-1.49-9.58-3.2-14.33-4.78-9.49-3.21-18.9-6.39-28.21-9.54-9.37-2.95-17.93-7.73-26.78-11.44-8.73-4.01-17.52-7.7-25.94-11.86-8.16-4.67-16.23-9.29-24.2-13.84-63.59-37-112.64-83.73-148.28-129.83-35.44-46.33-59.77-91.14-73.64-129.87-1.9-4.78-3.74-9.44-5.53-13.96-1.89-4.48-3.52-8.89-4.6-13.34-2.5-8.77-4.83-16.98-7-24.61-2.1-7.64-4.37-14.62-5.85-21.14-1.19-6.57-2.27-12.54-3.23-17.89-1.95-10.57-3.44-18.66-4.48-24.28-1.03-5.47-1.7-8.26-1.7-8.26" fill="#17282f"/><path d="m1326.54 3365.79c.14-.56-5.96-1.4-15.54-6.23-9.46-4.73-22.41-14.58-31.36-31.46-4.37-8.39-7.71-18.47-8.13-29.54-.33-11.01 2.22-22.94 8.72-33.58 12.32-21.21 39.31-38.3 67.99-34.62 28.61 4.21 49.98 27.98 56.1 51.74 3.38 12 2.6 24.17-.69 34.69-3.41 10.54-9.36 19.35-15.83 26.24-13.19 13.82-28.32 19.79-38.71 21.79-10.54 2.05-16.63 1.2-16.65 1.78-.01.18 1.47.42 4.36.7 1.44.2 3.23.27 5.35.14 2.12-.02 4.57-.14 7.29-.62 10.81-1.44 26.81-7.07 41-21.23 6.97-7.07 13.45-16.23 17.28-27.44 3.73-11.18 4.73-24.38 1.24-37.26-3.2-12.89-10.31-25.51-20.65-35.61-10.17-10.24-24.03-17.78-39.38-20.09-15.39-1.92-30.77 1.58-43.33 8.69-12.68 6.92-22.94 17.14-29.51 28.68-6.85 11.46-9.46 24.43-8.9 36.2.65 11.83 4.41 22.41 9.2 31.09 9.83 17.48 23.71 27.22 33.73 31.54 2.49 1.21 4.81 1.99 6.86 2.57 2 .7 3.74 1.12 5.18 1.32 2.85.51 4.35.68 4.38.51" fill="#17282f"/><path d="m1516.41 3204.35c.11-.49-3.69-1.14-9.61-4.26-5.85-3.06-13.84-9.28-19.32-19.79-5.51-10.23-7.68-25.69.55-38.97 7.63-13.05 24.34-23.56 41.9-21.29 17.53 2.57 30.78 17.21 34.59 31.84 4.33 15.02-1.95 29.32-10.03 37.66-8.11 8.64-17.48 12.47-23.94 13.82-6.55 1.41-10.39 1-10.41 1.5-.06.21 3.76 1.33 10.76.5 6.89-.8 17.12-4.27 26.24-13.26 4.47-4.47 8.65-10.31 11.14-17.5 2.43-7.15 3.1-15.65.88-23.93-4.03-16.36-18.38-32.75-38.52-35.79-20.2-2.52-38.44 9.37-46.75 24.03-4.38 7.36-6.04 15.72-5.63 23.27.44 7.59 2.89 14.34 5.99 19.87 6.34 11.11 15.26 17.23 21.67 19.86 6.51 2.7 10.48 2.65 10.49 2.44" fill="#17282f"/><path d="m778.504 3753.26h-32.293l-70.481 98.21v64.47s-49.917 3.07-44.042-81.34c5.875-84.42-.485-62.92-.485-62.92s-105.988-.41-114.793-9.62c-6.414-6.69-9.308-111.97-10.418-169.08-.551-28.74 17.078-55.48 43.813-62.27 3.797-.97 7.636-1.53 11.406-1.53 26.434 0 161.508 21.49 161.508 21.49h55.785z" fill="#f03d5f"/><path d="m870.961 3770.95-19.863-220.88h-55.313v216.44z" fill="#f03d5f"/><path d="m1269.25 3722.56s-.34 3.08-.73 9.1c-.37 6.14-.9 15.04-1.6 26.66-.34 5.87-.71 12.42-1.12 19.63-.74 7.2-2.26 15-3.51 23.48-1.33 8.47-2.76 17.59-4.29 27.34-.59 4.92-1.76 9.87-3.2 14.94-1.33 5.08-2.69 10.32-4.1 15.71-9.83 43.41-30.08 94.73-62.07 149.13-32.25 54.18-78.82 110.8-142.27 158.87-7.97 5.94-16.03 11.96-24.19 18.04-8.49 5.58-17.45 10.68-26.303 16.14-4.449 2.7-8.922 5.41-13.418 8.13-4.472 2.77-8.972 5.54-13.867 7.66-9.578 4.6-19.258 9.25-29.039 13.94-4.902 2.32-9.77 4.78-14.77 7.01-5.144 1.88-10.316 3.77-15.515 5.66-10.395 3.79-20.887 7.62-31.477 11.48-10.691 3.54-21.883 5.82-32.953 8.84-5.562 1.42-11.148 2.85-16.758 4.29-2.812.68-5.597 1.52-8.449 2.07l-8.644 1.31c-23.122 3.29-46.493 8.06-70.715 8.21-12.055.41-24.207 1.6-36.453 1.41-12.243-.63-24.579-1.26-37.008-1.9-6.203-.43-12.473-.39-18.684-1.21-6.191-.95-12.406-1.9-18.64-2.86-12.45-2.06-25.11-3.51-37.622-6.1-24.679-6.71-50.25-11.72-74.558-21.86-6.16-2.27-12.344-4.53-18.551-6.8-3.086-1.17-6.226-2.21-9.285-3.49l-8.961-4.32c-11.973-5.78-24.012-11.59-36.121-17.43-11.809-6.4-23.125-13.85-34.816-20.78-5.723-3.66-11.829-6.79-17.282-10.91l-16.453-12.33c-22.73-15.6-42.605-35.1-63.418-53.89-9.43-10.38-18.902-20.81-28.418-31.28l-7.148-7.88c-2.211-2.76-4.274-5.66-6.422-8.49l-12.797-17.13-12.855-17.19-11.254-18.39-11.243-18.51-5.64-9.29c-1.688-3.2-3.18-6.52-4.778-9.77-6.3-13.09-12.628-26.23-18.98-39.42-5.039-13.75-10.094-27.55-15.172-41.4-18.226-56.1-28.047-115.69-28.848-176.33.797-60.66 10.586-120.27 28.809-176.4 5.078-13.85 10.133-27.66 15.164-41.41 6.36-13.2 12.688-26.34 18.992-39.43l4.77-9.78 5.64-9.29 11.247-18.51 11.253-18.4 12.86-17.2 12.801-17.13 6.414-8.5 7.148-7.87c9.524-10.48 18.992-20.92 28.43-31.3 20.808-18.8 40.691-38.3 63.422-53.91l16.465-12.32c5.445-4.14 11.554-7.26 17.281-10.92 11.687-6.93 23.012-14.39 34.816-20.79 12.117-5.84 24.156-11.65 36.129-17.43l8.961-4.32c3.055-1.28 6.199-2.32 9.289-3.48 6.203-2.28 12.391-4.54 18.551-6.8 24.312-10.16 49.883-15.16 74.566-21.87 12.52-2.58 25.176-4.04 37.625-6.1 6.239-.96 12.453-1.91 18.649-2.86 6.211-.82 12.48-.78 18.683-1.21 12.43-.64 24.77-1.27 37.012-1.9 12.246-.18 24.398 1 36.461 1.42 24.223.14 47.59 4.92 70.715 8.2l8.648 1.31c2.852.56 5.637 1.4 8.449 2.08 5.61 1.44 11.196 2.87 16.758 4.29 11.067 3.02 22.258 5.3 32.953 8.84 10.59 3.86 21.082 7.69 31.481 11.48 5.191 1.9 10.363 3.79 15.516 5.66 4.945 2.35 9.867 4.69 14.765 7.01 9.781 4.7 19.465 9.35 29.043 13.95 4.887 2.12 9.391 4.9 13.863 7.66 4.496 2.73 8.969 5.43 13.418 8.13 8.848 5.46 17.808 10.57 26.308 16.15 8.15 6.08 16.22 12.09 24.18 18.03 63.45 48.08 110.01 104.7 142.26 158.88 4.07 6.76 8.25 13.32 12.05 19.93 3.32 6.86 6.59 13.6 9.79 20.2 3.2 6.62 6.35 13.1 9.43 19.45 1.49 3.2 3.18 6.27 4.46 9.48 1.2 3.25 2.39 6.46 3.56 9.64 4.69 12.7 9.18 24.85 13.46 36.45 3.95 11.7 6.31 23.26 9.31 33.97 1.4 5.39 2.77 10.63 4.1 15.71 1.44 5.06 2.61 10.02 3.19 14.93 1.53 9.76 2.97 18.88 4.29 27.35 1.25 8.48 2.77 16.27 3.51 23.46.41 7.22.79 13.77 1.12 19.64.7 11.62 1.23 20.52 1.6 26.66.39 6.01.73 9.08.73 9.08s.02-3.07-.19-9.1c-.26-6.15-.62-15.06-1.09-26.71-.27-5.89-.55-12.45-.87-19.7-.66-7.21-2.11-15.03-3.27-23.55-1.26-8.51-2.62-17.67-4.07-27.46-.55-4.94-1.68-9.92-3.09-15.01-1.29-5.11-2.62-10.37-4-15.79-2.93-10.77-5.23-22.4-9.12-34.17-4.23-11.66-8.67-23.9-13.31-36.69-1.16-3.19-2.33-6.42-3.52-9.69-1.27-3.23-2.95-6.33-4.43-9.55-3.06-6.39-6.19-12.93-9.37-19.59-3.19-6.66-6.44-13.44-9.75-20.35-3.79-6.66-7.95-13.27-12.02-20.09-32.18-54.6-78.8-111.73-142.52-160.31-8.01-6-16.11-12.08-24.31-18.22-8.53-5.64-17.53-10.81-26.425-16.33-4.473-2.73-8.969-5.47-13.493-8.22-4.5-2.79-9.027-5.6-13.941-7.75-9.637-4.66-19.375-9.37-29.211-14.12-4.934-2.35-9.836-4.84-14.863-7.1-5.184-1.9-10.387-3.82-15.617-5.74-10.457-3.84-21.028-7.72-31.692-11.64-10.758-3.59-22.027-5.91-33.176-8.98-5.601-1.44-11.23-2.89-16.879-4.35-2.832-.7-5.64-1.54-8.511-2.11l-8.707-1.34c-23.297-3.37-46.852-8.21-71.258-8.41-12.156-.45-24.402-1.65-36.746-1.49-12.344.62-24.778 1.23-37.309 1.85-6.254.43-12.578.38-18.844 1.2-6.246.94-12.511 1.89-18.8 2.85-12.555 2.05-25.325 3.51-37.95 6.1-24.906 6.71-50.699 11.75-75.238 21.94-6.219 2.28-12.461 4.56-18.719 6.84-3.117 1.18-6.289 2.23-9.371 3.51l-9.05 4.35c-12.082 5.81-24.235 11.66-36.461 17.54-11.918 6.45-23.348 13.95-35.153 20.93-5.773 3.69-11.937 6.84-17.441 11l-16.621 12.42c-22.938 15.72-43.028 35.38-64.031 54.33-9.524 10.47-19.094 20.99-28.708 31.56l-7.214 7.94-6.489 8.57-12.922 17.28-12.984 17.35-11.371 18.56-11.359 18.68-5.692 9.37-4.824 9.87c-6.367 13.21-12.762 26.47-19.176 39.79-5.086 13.87-10.195 27.8-15.328 41.78-18.41 56.65-28.305 116.82-29.101 178.04.804 61.19 10.722 121.35 29.14 177.97 5.133 13.97 10.242 27.9 15.332 41.77 6.418 13.31 12.809 26.57 19.172 39.78 1.613 3.29 3.125 6.63 4.828 9.86l5.696 9.37 11.351 18.68 11.371 18.55 12.985 17.35 12.925 17.27c2.168 2.85 4.246 5.78 6.485 8.57l7.215 7.93c9.609 10.57 19.175 21.09 28.695 31.55 21.008 18.95 41.09 38.6 64.027 54.32l16.617 12.41c5.504 4.16 11.668 7.31 17.442 11 11.797 6.98 23.226 14.49 35.148 20.93 12.223 5.88 24.375 11.72 36.453 17.54l9.043 4.34c3.086 1.29 6.262 2.34 9.375 3.51 6.254 2.28 12.496 4.56 18.715 6.84 24.535 10.19 50.324 15.22 75.227 21.94 12.621 2.59 25.39 4.04 37.937 6.1 6.297.96 12.567 1.9 18.813 2.86 6.258.8 12.582.76 18.836 1.18 12.523.63 24.961 1.24 37.304 1.85 12.344.17 24.59-1.03 36.743-1.48 24.406-.2 47.96-5.03 71.25-8.41l8.707-1.33c2.871-.56 5.679-1.42 8.511-2.11 5.653-1.46 11.278-2.91 16.879-4.36 11.149-3.05 22.41-5.38 33.18-8.97 10.664-3.92 21.226-7.8 31.687-11.64 5.231-1.92 10.438-3.84 15.618-5.73 5.027-2.26 9.925-4.76 14.859-7.1 9.836-4.76 19.574-9.46 29.211-14.11 4.918-2.16 9.445-4.96 13.941-7.76 4.528-2.75 9.024-5.49 13.496-8.22 8.901-5.52 17.901-10.69 26.431-16.33 8.19-6.14 16.29-12.22 24.3-18.22 63.73-48.58 110.36-105.7 142.54-160.3 31.92-54.84 51.97-106.49 61.54-150.14 1.37-5.41 2.7-10.68 4-15.79 1.4-5.09 2.54-10.07 3.08-15.01 1.45-9.79 2.81-18.95 4.08-27.47 1.16-8.51 2.6-16.34 3.26-23.56.33-7.24.61-13.81.87-19.7.48-11.65.84-20.56 1.1-26.72.21-6.02.19-9.1.19-9.1" fill="#17282f"/><path d="m2167.05 3527.5-.39.01c-8.28.21-14.82 7.1-14.62 15.38l3.4 133.5c.13 4.7 2.44 9.07 6.26 11.81 3.83 2.75 8.71 3.54 13.19 2.14 24.15-7.49 51.49-4.07 75 9.38 21.83 12.49 37.31 32.28 42.47 54.26 5.12 21.88.1 46.61-13.78 67.86-14.91 22.84-37.46 38.53-61.88 43.05-49.13 9.14-102.96-23.63-120.07-72.98-2.71-7.82-11.28-11.97-19.08-9.25-7.83 2.71-11.97 11.25-9.26 19.08 21.77 62.78 90.81 104.34 153.88 92.65 32.43-6.01 62.15-26.48 81.52-56.14 18.34-28.08 24.86-61.29 17.87-91.11-7.05-30.07-27.74-56.84-56.77-73.46-24.77-14.17-53.04-19.74-79.82-16.16l-2.94-115.39c-.2-8.16-6.87-14.63-14.98-14.63" fill="#17282f"/><path d="m2190.3 3461.55c0-12.11-9.83-21.94-21.94-21.94-12.12 0-21.94 9.83-21.94 21.94 0 12.12 9.82 21.94 21.94 21.94 12.11 0 21.94-9.82 21.94-21.94" fill="#17282f"/><path d="m525.711 1988.37c-22.512 0-44.734 6.52-62.559 19.89-21.011 15.75-34.964 40.81-38.297 68.75-3.152 26.48 3.965 52.49 19.532 71.33 15.699 19.01 39.953 30.83 66.535 32.42 21.211 1.32 42.012-3.93 59.254-14.55l39.539 74.94c3.855 7.33 12.933 10.13 20.269 6.27 7.325-3.87 10.129-12.94 6.266-20.27l-47.809-90.61c-2.191-4.16-6.207-7.04-10.843-7.81-4.606-.78-9.364.7-12.766 3.95-13.355 12.71-32.309 19.34-52.117 18.13-18.305-1.09-34.777-8.95-45.192-21.57-10.371-12.56-15.062-30.3-12.875-48.69 2.364-19.83 12.02-37.43 26.504-48.29 28.809-21.61 75.911-17.49 102.84 8.97 5.903 5.82 15.391 5.73 21.211-.18 5.805-5.91 5.723-15.41-.183-21.21-21.094-20.74-50.43-31.47-79.309-31.47" fill="#17282f"/><path d="m634.57 2297.71c4.125 8.33 14.223 11.74 22.547 7.61 8.328-4.12 11.735-14.22 7.61-22.55-4.129-8.33-14.219-11.74-22.551-7.61-8.324 4.13-11.735 14.22-7.606 22.55" fill="#17282f"/><path d="m3553.04 2240.79c-4.65 0-9.23 2.15-12.17 6.21l-60.03 83.02c-2.75 3.81-3.56 8.69-2.18 13.18 1.37 4.49 4.77 8.08 9.18 9.7 17.32 6.33 31.67 20.42 39.37 38.67 7.14 16.89 7.39 35.14.7 50.08-6.66 14.86-20.49 26.93-37.95 33.12-18.79 6.67-38.86 5.82-55.02-2.34-32.14-16.26-49.34-60.3-37.55-96.17 2.58-7.87-1.7-16.35-9.57-18.93-7.86-2.59-16.35 1.69-18.93 9.56-16.44 50.01 7.13 109.36 52.52 132.31 23.44 11.85 52.08 13.24 78.58 3.85 25.15-8.91 45.31-26.82 55.31-49.14 10.07-22.5 9.91-49.48-.45-74.01-8.28-19.62-22.15-35.92-39.31-46.66l49.65-68.67c4.85-6.71 3.34-16.08-3.37-20.94-2.66-1.92-5.73-2.84-8.78-2.84" fill="#17282f"/><path d="m3604.87 2217.22c5.63-7.39 4.21-17.95-3.18-23.58-7.39-5.64-17.95-4.22-23.59 3.17s-4.21 17.96 3.18 23.59 17.95 4.21 23.59-3.18" fill="#17282f"/></g></svg>